<mxfile host="app.diagrams.net" modified="2022-02-27T22:11:43.708Z" agent="5.0 (Windows NT 10.0; Win64; x64) AppleWebKit/537.36 (KHTML, like Gecko) Chrome/98.0.4758.102 Safari/537.36 Edg/98.0.1108.62" etag="L3IV_RonsiMj05J2zEFi" version="16.6.4" type="github">
  <diagram id="5dOWZmNRwWPR4YWjhu2E" name="Page-1">
    <mxGraphModel dx="2272" dy="794" grid="1" gridSize="10" guides="1" tooltips="1" connect="1" arrows="1" fold="1" page="1" pageScale="1" pageWidth="850" pageHeight="1100" math="0" shadow="0">
      <root>
        <mxCell id="0" />
        <mxCell id="1" parent="0" />
        <mxCell id="GTp7Qgm1005vjMaOhcDN-7" value="" style="shape=image;verticalLabelPosition=bottom;labelBackgroundColor=default;verticalAlign=top;aspect=fixed;imageAspect=0;image=data:image/png,iVBORw0KGgoAAAANSUhEUgAAATUAAAC9CAYAAADSi+oFAAAAAXNSR0IArs4c6QAAAARnQU1BAACxjwv8YQUAAAAJcEhZcwAADsMAAA7DAcdvqGQAACT+SURBVHhe7Z0HfFRl1sZPSE8gjYRA6FVCEZTeRBBkV0FWkA9EFjYrVUC6SFPpRBBBEKSjoKKioiwgqBTpvW7oEEJAICQhEEiD8M1zcm+cTCaZTDJhJ2/O373r3PfWGX/3yTnnnTmPw2MDJAiCoAhFtH8LgiAogYiaIAhKYfP0c+7BeF5yipdrERpcz4PerFtUGxEEQcg9Nhe1bj9GU99ajtSgpKM2ksYXYSn0yHClkJrO2kga95If0/A/UmjNq8W1kYxcuHCBpk+fTrNmzSJfX19t1Pbs37+f1qxZQ9OmTSN3d3dtVBCEgsYTSz8haKlm5LOYi4P2ShAEIe/ki6glpzpQwiPKsCQbloepGcewJBoWQRAEW5Eh/YyNjSVXV1fy8PDQRtLALjdu3KDAwEAqUiR7HUT6GZvwkAz/ywAiNeBoEpiV8HAgJ0fHbNPP999/n1q0aEGrV6+mBw8e0ODBg6lnz57kaDjuzp07NG/ePPr666/Jzc0tw7YPP/yQ38v58+fpl19+oQYNGtCkSZOoUqVKlJiYSAsWLKClS5dShQoVqGnTphQdHS3ppyAUcNIVCuLQr18/GjNmDL/WgaCtW7eO2rVrR1u3btVGs2d0A1fa8KpHhuWL5x/RypYPM42vaGdZQK5fv05+fn70xx9/0Pfff09btmzhGtijR49YmDw9PenYsWO0YcMG3nbo0CHtSOJjhg0bRidPnqQ6derQDz/8wO9p/fr1LJjYjjFTIRcEoWCSLmo+Pj40dOhQ2rlzJ0dGEDZd0MaNG0fdu3en5s2ba3tbz2PDPw65LJ8hsmrbti1HiRUrVmSB3bdvH68PGjSIozMXFxcqWbIkC1dERIR2JFGXLl04EsP25557jq5du0ZxcXEsitjm7+/PEV6zZs20IwRBKMhkyCWRgs2fP58feAjbsmXLWNCQzkHw8PDnhCIJdyj8enSGJfZugmF5kGn86s1Y7aicg8js4cOHBpF0oHv37tHIkSOpRo0aVKVKFVqyZIm2V9akpqZylCfRmSCoR6YCGYRt9uzZLGz4KoW1ggZSnT2ouE/RDIuHmzO5u7lkGi/u7akdlXPu379PTk5OXF+bMWMGtW7dmtPLixcvcgptCUR4qLnheEEQ1MJs1R/CNmfOHBo+fLjVgsY4uVAxD9cMi6uLE7kZFtNxD4PQWeLSpUu0efNmjq4uX77Mrxs3bszRWkJCAnl5eaXvZ1xPywpMhjRq1Ii+++47un37Nk8a7N69W9sqCEJBxqyoAYjGwIEDrRe0LECqaPj/tBUj8OVbSwQFBXGNr2XLltS5c2fq2LEjixLErH///jRz5kxOPxctWsQ1N0RylujQoQPVqlWL62xt2rThmhvSWkEQCjY2/0XBsmNpP5OKT9EGLFDUmWhow2L07zoiKIIg5B1pPSQIglJkmX4KgiAURETUBEFQChE1QRCUQkRNEASlcAiLfSgTBYIgFHh6jJ7P/5ZITRAEpbAoagGPE7RXgiAI9o9EaoIgKIWImiAISmFxogDpZ5TDk+8Eeyn+Fu25eU5b+4tmpapSRY9AbU0QBCENu58oWHl2JwV5F6MGpcukL08FBNCYvT/kutmkIAjqY7eiFp+cRB2q1KJnS5ZNX54vV4VKe3prewiCIGTGbtPPXtuWUO3AIH7t5uhEZ6Jv8evUx6mG9TTv0JDgZlTbuzy/zi/u3oml2e+9Q28OG01lK1bRRu2LuJho2rD2K+rY/V/kWbSYNpqRq+EX6eDO7dSh6z/J2cVyDztBKGjY//fUDFJ77vYtik1IoLVnjtHgZ1vwMqReS+pXtym9XqMerQjLWWPH1EePaOuGddSvUztqX68aDerannb/vpnbehd0khITaNXCOVSzbv0MgpaY8IA+HDOMVs6bxetlylciL28f+vnrz9l7QhBUxW5Frbi7J41o2IrmvPAqrxunoXoqmhPwAEPQ9mzdQlMXrqT1h87Su6Gf8MN9bH/B73aL6Mu3eADVrtdQG0l7z39s3kAHd23XRgwhuYMDNWn9IoVfOMeLIKiKTUUNqRoiBFPwkN2++adVkdFjQ5p5JSKCzp4/z+uvfL840xJ5z7JpC+5px+b/UNd/DyD/wFL8cJepUInadOjEQvcwJSU9kvvXSy2pU5PaNGv8SIqOuqmd4S+uXr5AH7zdh88JECXNGjeCTh4+kP762+ULaWz/ntSxUQ2OlM6dOkHT3xnM6xiPDL/Ex+KYaaMG0Zqln1K3Vg342ju3bOTPCsvhPTs5okRkaXycMbjmod07qH6zllTE0VEbxX1epKMGwe7cq7c2kgYiuepP1zUIYc6sDgWhIGIzUbsXd4emDB9An0wax6918IBu2/gTDXjtJcPDtE0bzRlBQaWoYvkK/Lp7cL1Mi597Ud6WHXfvxJCjoxMFli6jjaTRtuNrNGjcZHJydmZx+239DxS69Ev6ZsdhfvBXzJ3JomEtd2Ji6L2PP6Ovtx5gW8Cls6dRyJB36Mc9J6lhi1b0n2+/ZBEFJw7tp/KVq9GXv+2jweMn08a1X7Fg3rweSd+t+IyGT5pJPx88Q8//rQOt/mxupj8YsdG3+bMuafTesA+i0Jde607FAzJ/9aVK9Vp06dwZSnhgueW5IBREbCZqxbx96I3+Q+jIvl20cMZEfth0QZs/ZQL9/bXXqW7j3HtrdqpSO9PibhSdZAVE5t7dv0TWlOTkJDpgENtXe/ybAoPKcBG9Zbv2lHA/nq5dCdf2yjlNWrUlN3cP8vAsSnUaNKEaz9Q3iE5ZjqQqV69J8YbPJSUlmfet3/Q5erZJc3a2qlqjNrm6ubMI4x7w2UUYIsPkpESOKgcbBNjFNaNfREzULb6Wq5GjPAQ6oGQpqlm3njaSEY+inpT44AGlJKfdgyCohk3TzzoNm9CY0E84tYKw/bh6OQta+27/NAje2+Rq8lBa4vr1P+myJiwXL13KtOQEHz8/Kublo61l5rEhJUbkBHHQcXF1JXcPT7off08byR0Qq9yACGvYxFA6Zfgc+3RsS+MHhtCfkVfZ2s8YuGshnU4ztdFmOHdt5yjUOB01xsvb1yCYqRQXG62NCIJa2FTUAIRt5JRZLGzL54TmWtAcHIpQ+XLl6KmqVXk9uHr1TAv2sYRH0WIc7dy8FqmNpPHrT2tp/tQJLAwQAOPULjkpie4aIioXF1dt5MmCOl8xL28aOHYSff7LTo4il88NzZDWA4imXoMD2zeu57pcz3bNuRY3d9JYWrtyMY34V5f0OuDduFj+3Lx9i/O6IKiGzUUNQNhGTZtN/3xraK4ETedcbBQdu3WNX8cY0kjTBRGHJfz8S1Drl/9B675cwcV/CACK7ts2/Uwt2r7EaSJqXYgqUctC1Iave3gULUrlq6QJqo6Xjx/X2c6HneJJjwun/0thx49oW23HVcP9TRzSlyKvXOIozDRC0/ELKMFinJSQVvvD5/2fw+fSlyHvTaPX/tWXPlr5neHefXmfB/H3yc3DQ76rJihLvogaeLp+I+r65lu5FrSQGs1oW/h5WnniAK/ff/Ag05ITIAoQtXrNnqOx/XpSh/pP0azxI6hzzz70dIPGvE/T1i9y3Wp07zfoteZ16dSRg9RnxNgMKSnw9vWjzr360Lwp4+m1ZnW4XlimQkVtq+2oUKUaderZm0JHD+H7/Xb5Z9Rz4HCuWxrjW9yfx26YRKHZEXHpPFWqVp3Ta0FQEbv9RYEOykUt14XSwV4jtZG/6LfpG5rdpLu2VjhBDQ1fG3m9z8As62g6iOpQ6/yHIZ2tWPUpbVQQ1MD+f1FgRFEXV9px9QIdvnk1fVlz+giPF3YQEcdGR9GZU8e1EfMg7d716yaqWrM2R4KCoCp2L2qogc9r+TqdvhVFByMj05dHKUSDa7fR9iq84Gsg/xwwlH8dkd1sLepzmPxo94//45RcEFTF7tNPQRCEnFCg0k9BEIScIqImCIJSiKgJgqAUImqCIChFvoua+IYKgvAkcXis/3AwC27HxpO/r+UWP1mR1+MFQRCsQdJPQRCUQrlI7UjMTYpLSdTW0nAw/PN8YDltTRAElVFK1NZFnKFZx3eSl3PGH9HfNYjcyDot6B/lqmsjgiCoilKiNvXYDkqgx9S3blNtJI3Fx/aQuyFaG1e3pTYiCIKqSE1NEASlUCpSG7p3I/0n/DQVdcmYfsYnJ1LbslVpYfNXtBFBEFRFqUitcclyVMu/FHUPfjbDgjEvE6ETBEFNlBK1AHdPqhUQRN1q1MuwYMwrh73XLly4QCEhIfT5559T8+bN6dlnn6UVK1awlwG4c+cOTZ48mWrUqJFhW0JCAg0bNowWLFhAPXr0oKeeeoqGDBlCx48fp4EDB/I6xi8ZGcacOnWKxypXrpxpmyAIuUO5mlr8/ft04+atDAvGrCE8PJx9AbZu3UqrV6+m9evX0+XLl1m8IFqenp507Ngx2rBhA23ZsoUOHTqkHUkUHR1NixcvpsOHD3NjxqlTp9K7775LYWFh1Lp1a1q1ahWfJyIigt577z3q27cvnTt3jrp27Uoff/wxPchhm3JBEMwjEwVmqFSpErVv355cXFyoYsWKVL58eRYrCN2gQYNo8ODBvK1kyZJUp04dFiidF198kTw8PKho0aLUtGlTql+/PpUtW5adn2rWrMmRXnJyMosejm3WrBlvQ1QIQbt+/bp2JkEQcoNyolbUEEWVDCyRYcGYLUDH2Hv37tHIkSM5/axSpQotWbJE25qZ7Hw/Hz58SF988QVVq1aN00+I365du1j0BEHIPcqJGlI7RELGi14PyyuIpGbMmMFp5MmTJ+nixYvUr18/bat1ODk5UZ8+fbiGh/NgOXv2LIubIAi5RzlRuxMXl8nJHWO2ANEVJgS8vLx4HYV943qaNTz99NOcgu7bt489RP/880+O+hAJCoKQe5QTteJ+fpmc3DFmCyBm/fv3p5kzZ3L6uWjRIq653bdyIgIg5Xz//ffp008/papVq9Kbb77JM6SoxQmCkHuU+vLt7zcu07YbV+RnUoJQiFEqUnM0CBc8QZcc35NhgWdoTb9AbS9BEFRGudZDP0Wcpf/G3NTW0oCgdSwnjuSCUBhQTtQEQSjcKDdRIAhC4UZETRAEpRBREwRBKUTUBEFQChE1QRCUQkRNEASlEFETBEEplPuemvh+CkLhRilRE99PQRCUEjXx/RQEQWpqgiAohVKRmvh+CoKgVKQmvp+CICglarbw/QTw4+zWrVu6d+fbb79N3333HW9LTEykzz77jD0/zfl+wgLP2PcTLlTgww8/pA8++IDPi9dAfD8FwfYoV1PLq+8n3JzQrvuNN96g06dP04ABA9izEyBTX7lyJZ0/f57++OMP2rRpE+3Zs4d2797N2wE8C+bMmZPu+wnvUB2cZ9KkSWxuLL6fgpA/yESBCXB3ghVey5Yt2ecTnp+1a9fmbXFxcbR//372E4CXQGBgIPt8wjxFp3v37uTv78/bW7RowSbIOp06dWJLPJghi++nIOQPyolaXn0/kUr6+vqSs7OzNvIXiLzu3r1LHTp04JQRC9zXb926RUlJSdpeWWPsAyq+n4KQPygnann1/XR1dWXBgW2dKYjg/Pz86Jdffkn36sQya9YsPs4axPdTEPIH5UQtr76fFSpUoPj4eK6FQdiuXLnCxsWgWLFi7Nf51VdfcUQFsdywYQPX1axFfD8FIX9QTtTy6vvp4+NDY8eOpW+++YaCg4MpNDSUvL29eRvSR0RXqKXBpR21tiNHjrAHqLWI76cg5A9KffnWVr6fiMD0+he+qgGR69KlCzVtmvG8giDYH0pFarbw/UTqCRE7evQop4UHDx7kFLRMmTLaHoIg2DNKRWrAFr6f+FLsjBkzaO/evVSrVi2aMGGCFPAFoYCgnKgJglC4UW6iQBCEwo2ImiAISiGiJgiCUoioCYKgFCJqgiAohYiaIAhKIaImCIJSKPc9NfH9FITCjVKiJr6fgiAoJWri+ykIgtTUngA3b96k2NhYfg0DF914JTvQNhxGLugSYgrOhVZFaDCpEsafkyDkFqVELSrhPq05fZhe+X5JhgVjkfE5bxRpS9BFF+5T69at00bsG90VC6KaG6w5HuKuu3QVtM9JsF+UEjV79P1E2240gwwJCdFGBHPI5yTYCqVEzZa+n7of50svvcS2dyg9okstLPJ00PUW3p5wgUJ778mTJ3MXXGM/UGAckRiDc8JqD9fAtUy9P9Hae8GCBXw+uE2hdbi5EmhWXqRZkdV1kc62a9eOfv75Z3bFMudPqn8eAPvDSnD69OncCRgt0M0dbwpSzM6dO9OiRYvYuEZPs40/J7zGAjtBdATG9XFd/TM2vg8gHqqCjnI1tbz6fqKuM2XKFPbjhL/n6NGjafbs2fwgws4OvgL3tfPBX6BBgwZsugLxgfXdsWPHWHy2bNmS4aEzB4xW4BGK8+NaL7/8Ms2bNy+9jgbRxPlxnrlz59KyZcvYoMUYCJQlL1JTIiMjaeHChWwYg+NeeeUV9hwNCgqizZs38zp8GN55550sP4+YmBg+Fyz9SpcuTWvXrmVbQdPjzQG3ru+//5769evHfetwbXd3d23rX4SHh9PEiRPZIwJ2gsOHD2ebQawPHTqUli5dyv8txENVMEYmCkyAZ+fixYs5MoLvJ5pEQrTwEMNLAG2+0QkXVnl4uNA8EvsNGjSIBg8eTC4uLlSyZEl+CPGwZQeiCggSIhGcA+dCxIfIC0AkIGrYVrduXT6nbgKjkxMvUlNwjxBDRFq4FqKmqVOnkptb5hQ9u88DwKgGYgyXLWMLQFvQqlUrvj7uF39Q6tWrR5UqVeLr4N8pKSnsFiYeqoIxyolaXn0/8eAi2nr11VdZdBo2bJgeHSESg/AggkK0g4gDZsewzkOqOHLkSE6NqlSpws5QlsC1fv/9d2rbti1f629/+xuLpTnwsCKaQUHdGIiTtV6kED640EMMkTb26tWLBRj3Y0p2nwfAdnPH2ZrsBFM8VAVjlBM11JLy4vuJlHD+/PmcmiGSQeqHCE0HD8zx48dZjGDEAqFBVIA0CgKBSAoPPVIrSyBF3LhxI61atYqPQeoGNytz4D0gLUVB3ZjceJEiwoFDFtJKpKqI8nD/5kTA0udhD4iHqmCMcqKWV99PpGNId5CKwXgF0cy1a9e0rcSRGQQGdTN4dwJEChAcLy8vXkeR2lI9DaAeBFHEgutCYJBO6uzYsYMOHDjA10O0BDGFLZ8xufEixUPfu3dvvk+IorlIS/cftfR5ZEVO/Uuxn7nJD2sQD1XBGOVELa++nxCNF154gTp27Mj1LPz1R5qJiA9AgBCRob5TqlQpHoOY9e/fn1M6pJ+Y1atYsWL6hEJWoGaG4jwivjZt2rCTFc6vXwszmRBH3AdmWVG3Q3plDNIya71IUcPDMagBIlXGpMGIESM4SsT1UctCkR8TApY+D1NMj88O7Ld8+XIaNWpUlqlyTsBnIh6qgo5SP5Oyle+nCmC2FtEYIjxjMDM5bdo0Fp/8xh7uQSh8KCVq22+EU+jxnVS/ZFltJI3tERdoRJ3m8oN2QSgEKNd6yBa+n4IgFFyUEzVBEAo3yk0UCIJQuBFREwRBKUTUBEFQChE1QRCUQkRNEASlEFETBEEpRNQEQVAK5b6nJr6fglC4UUrUxPdTEASlRE18PwVBkJpaPmGNVZwx6GwBXwBBEHKHUqJmj76floDoGZsWw/cSzlCmbbsFQcgZSomaPfp+WktISAg3PDRt2y0IQs5QStQCbOT7iXbVut+kqc8lROfzzz9nxyJTj80TJ05wh1h0nYW1G9pKZwd8LeGPCZ9M+GXi/PC91P0yEcWhyeJHH32U7v35008/sb2cueuj9bY1/p+CoCLK1dTy6vuJPv/jx4/nVtthYWEcNcGbU69zwYsSPf1h3Lt69Wpav349Xb58maKiolh8BgwYwOYrPXv2pNu3b/MxWYGW1/AWQCdYmK6gtbYp8LF8/vnnWVhhYzdhwgRufQ3/AqSq8BeFyQjme6z1/xQEFZGJAhMQLcGFCV6W6P8PU4+AgAAWMwC/yfbt27MZCXwIYMQSHR3NXqBoT92iRQs+DttMTVJyA7wQEPlBSOG5iXXY1OEauC94jMJgJDf+n4KgIsqJWl59P5Gu/frrryxmMPSAkCA9tGSMi+MgavnpgYlzZ3V+RGrW+n8KgoooJ2oQF93vU1+sqSshAoIw6P6d+gIz3+zAcZjBhEXb/4Lc+H8KgoooJ2p59f1E2girOtS4IIaosS1dupRu3Lih7WEepKEQtZ07d/JxqLNBGHMCrgeD4byQG/9PQVAR5UQtr76fxYsX55nL3377jWtZqJ9hDPWr7MB2+FeiWI/jMEMKkbEEJgcQZWHWFEKYWxApWuv/KQgqotTPpOzV9xNf00B9yxREVY0aNdLWBEGwBUqJmvh+CoKglKgB8f0UhMKNcqImCELhRrmJAkEQCjciaoIgKIWImiAISiGiJgiCUuS7qMkkgSAITxKJ1ARBUAoRNUEQlEJETRAEpRBREwRBKUTUBEFQCrsTtdTkJLr5+4/ammViD/9Bjx+pZycHTwR4gOY3aEX+ySefcEvwrECzSfSUQ8NNQbB37E7ULi+dRmemDKLbuzZpI1kTe2gHnRz1Ov13fIg2Yh40TPzxxx+pTZs23OYaDlHoEJufXWpza2YM4PkJVygYq1giL9fBsbNnz6b69etzk0k0qjxz5gyLXN++fdNFFb4MPj4+3CvOwk+FBeF/jt2JmmtAaUO49ohOT+pP0Xt/00YzE7Pvdzo5ugelpiSTe7nMLkw6eAghaOhku2rVKjZWmT9/Pj+gu3bt0vayL+D5CRcr2PHlJ9u2bePmlnpPt08//ZRt9SBwEDwdNLGEhR9cq7AIgj1jU1HDX/YHDx5oa38BYYEHZk4iIz2VfGQ4T9iEf1Pswe28bgyiuFMTQgypaiKvF3HOugc/7gk2dm+99RaVKlWKH1BEHp07d2ahQ3SiR3Lw0kSn2OHDh6db4mXn9Yn3BTs6RH6IAHv06EGXLl3iYyACMGyBryd8PDH2xhtv0PTp07kzLdbRdnvy5Ml8TVOfThyD5pL6awjxkCFD2Is0u+tkdU+mQLS2b9/O9nvomguGDh1KoaGh7IgFtyxjIHTPPPMMWwMKgj1jM1HDA9qvXz8aM2YMv9bBQ4Y0Cg9fTh4IFrXHBvFzMAhbUgKdfLcH3Tn6l3flrW0/0+kP+lJq4l+RRBFnZ+1VZmJiYjjyKVs2Y+PILl26sI+ms+FYiBsMgtesWUPHjh3jhxcPtx6tZOX1GRkZSQsXLmRzE/htwr/z448/pqCgID4n1tHdFv6eAI5UpUuXprVr11K5cuVowYIF5OnpydeEnwA8PHXjZFMgVEgz4XtQp04d+uGHH1i0TK+T1T2Z/rGBJyn+O5l+LtkBZ63Tp0/TfSt8VAXhSWMzUUPNBX/pYTyC1AkPjC5o48aN40gCkY4lHj9M4eN0EFkl34nW1ohcfIpn2u7glLWooRBuLLKmwD4OYgW/zDJlynCEAjcpmKHongFZeX1iHfeCiAnu6Ij+IJRubm58nCkVKlRgP1G4PkFMBw0aRIMHD+bzwL8TYhUREaHtnRGIMI7Hvs899xy7yOOapuT0nhCJenh4sK1fToGfKMRRJgwEe8am6WfTpk05TULRGsK2bNkyFjS4lUPwsnrYjUk1clUq4uZOwR8sphKtXtFGDOL5TDOqPWM1OboaHkZom0MRcnB0SttoBpimQHCzAikxUj484DqwlEMEld2MIIDJycyZM/n9IqXs1asXi1JW3pzGvp0QY5x/5MiRnH7CgGXJkiW8LS/k9J7wnvkPgmHJKb6+vvx5QdAFwV6xqagBCBtm1PBQoX5kjaCB1JQ0490iLm5Ua/IK8m/+d143xrfB81Rj8nJy1IQoO1FDLQgRy9WrV7WRNFCvguDi4UZNyTg9Q/SG6M6SXybqcd7e3jRlyhS2okO0N2PGjGwjQx1cD/tCeHSPUaTveSWn94T3jIjOOOq1BOqTEEf8oRAEe8XmogYgbHPmzOGCuzWCBhIiLlARZxeqHbqa/Bq/oI1mpniTNhT83meGd+BISVHXtNHMlChRgo2Ily9fzikXHmIUzn/66SdOBZFSQVgQVaIeBZHD1z0wXq1aNe0s5oEQ9e7dm8+HiMdchJZVtIevbaBm5+Xlxes4R1b1tJygXycn9wQQ0UFYjWc5LYGUHBEtUlxBsFfyRdRA48aNaeDAgVYJGqg5ZQXVnvk1+da3bGeHKK76+PlUsfdYbSQzeLAhai1btuTZR6R5KLjje1hNmjThfTCJgdpTt27d2C/zwIEDNH78+AwpqTkwEwmvTdTFcF4U6EeMGMHpLmpVrVq14uI9IldTIGb9+/fnVBHp56JFi7heZ20R3vQ62d2TMf7+/jxmGsFmByYegoODOTUXBHsl341XBPsF31M7fvw4C6D+tY6sQFSHOinS2erVxWpQsF/yLVIT7B9E01FRUfyVkuzA372NGzey4zwiQUGwZ0TUCjFIXVH33L17d7YzvajPYaKha9euVs2WCsL/Akk/BUFQConUBEFQChE1QRCUQkRNEASlEFETBEEp8l3UMNEgCILwpJBITRAEpRBREwRBKZQXteSEmxR18VuKjdxCyYnSMkcQVCffv3z7v/zy7tWjU+l+7AFydE7ln/qkPnKiYgFtqXStgdoegiCohrKiBkFLit9PgbWCydElrVNI4t04ijpzgYr6t6HStYfymCAIaqFk+pmcGEX3Y3ZTYM1gSn2YZBCycIo6e5GcXT3Ir1IZir+9hx49zGwQA9AGG50o8ttzE0000QIpu35maJsNfwRzhjU4LitrPNy7bhwjCIUNJUXt7vUdVMTJkRxd3Sj2ShS5erSm1JTSFPfnNfL0D6THFG+I4sx7AdgT6F/27rvvWi1Q8IWAbygaUVrC2LVKEFRASVFzcvHVXsGDIIlSkm9R6qMkQxqaNubg4EiPku+mrdgxNWvWZIcrWPtZQ0hICPc+g4uWIBQ2lBS1Ii7FDJHZQ4NwJZFfxbIGYTtB7r7x5B1Uge5GhhuUzouKlWio7Z0ZeBp88803mXw+AVrwZOfVac6fE+Cc6EyL4+DJ+euvv/J4dpimwidOnKCOHTvyOSZOnMhequZA5IV7AUhP4XmK+8L94j3Bjg/Wgej2i467iAb1VBj3iSgP+5q+v1OnTnF3YLw3vMe33347PcrDPsbeqfBF0NuF49x472ibLlGhkN8oJ2r3Y07S5b1DyadCSUNk5mqIypwooFol8ilnSD+vhVPMlRtUvEInbW/zwJ8TNnbw2oQfKPw4IQ54cC15dZrz58RcDLxCIVLYjjFLrcJNQTPHjz76iAYMGMDnhqENvDtzwr59+9hv4eDBg2yX9+WXX/I43hvMXiBA8AZF63U41yPtxX1u2rSJzVvQbw1ijtbjaIkO70/cR1hYGJ8H6N6pEC18HujPhvepc+XKFTaEhtWgIOQnSonag9jTdGHXW1QiuBp5lSpHt86GUeThk3R1/yG6evAI3bueRCUq9yX/Sp21I8wDn8+2bduyaQl8A+BhAGHAuiWvTnP+nHFxcSyK2AZvAIhHs2bNtCNyBkQBTR3hno7W27gv+CnkBPgz6Mehey3Og0jNFP0+ER3CeAbmLC+++CK/dwgyGkTiXPgc4H2qX9/YOxWpMgQbJsqHDx9OnwhBg0kYJ+PagpCfKCNqCXHn6OKu/lTCEJV5ly5Pt86EUVKcO1V7bjWVrTuLSgWPo2rPryH/ytkLmjkQmaHojoc6N16d5rxFrQXHQxCycoeyBYgo7969y2bOcH/HgtT01q1bnJbC9xMmzKbo7w8uVvpxMK+GoOvGx5Y8EATBVighaglxF1nQilctR95lK6SNxcaSX9mXydndnzz8gskrsDGP5wY4PKHonluvTggRHmocn1twPKIec1/vsBUQbaTdsAjEe9OXWbNmceQGYTd3ff39rVq1KsNx3377LXuQCsKTpMCLWuK9cIOg9SPfikHkU7YSPUxMoItbtxjEzImuh83T9rIOFPdRI0L0cfnyZX4Nk5LcenXCFLlRo0Zcb0IdDFEP6lTWgHQP1965c2f6fUFYbQGiT0RpMH5GevrVV19xDQ3XQd0QdTWk1PD9RJoJYUM6rF8f7w/p9BdffMGTF9iOlBV1xPwUYUEwR4EXtRthc6lokC/5lq9sSDdj+LtpmPV082xt2OpIj1Ks89EEQUFB/FCjfoQZQsw4QpTy4tWJlK5WrVpcZ2vTpg3X3KzxzwwICKBRo0ZxIR/XRtEdApRX4BkKo2ecG6INz1DU0hCNomZ25MgRvh48QseOHcuzwvD+DA0NzRCFoYaG2iPqhtiOqA2zp/mZLguCOQr0z6RSUx7Qhb1vUsngChQdcYHiIq6Ss4cbObk6k3dgV8N4b21P+wVf10AtytSmDiIxbdo0uyqsI3LTa2OIGiFyEDE48guCvVCg/4wWcfYg//Kv083TkVTkcWWq9fJmKlP7A0p5UIT+DFuk7WXfoPiOr0IY16Kw4CsW9iRoSD0hYkePHuWUEl8PQQpapkwZbQ9BsA+U/UF70r1wci2WNmkg2AZ8+RYTJXv37uVUesKECVS/fn1tqyDYB0q3HhIEofAhVVxBEJRCRE0QBKUQURMEQSGI/h/FF2f7AlSyCAAAAABJRU5ErkJggg==;clipPath=inset(0% 29% 0% 0%);" vertex="1" parent="1">
          <mxGeometry x="-280" y="50" width="229.88" height="197.5" as="geometry" />
        </mxCell>
        <mxCell id="GTp7Qgm1005vjMaOhcDN-8" value="" style="shape=image;verticalLabelPosition=bottom;labelBackgroundColor=default;verticalAlign=top;aspect=fixed;imageAspect=0;image=data:image/png,iVBORw0KGgoAAAANSUhEUgAAAMgAAADDCAYAAADHn15dAAAAAXNSR0IArs4c6QAAAARnQU1BAACxjwv8YQUAAAAJcEhZcwAADsMAAA7DAcdvqGQAACLBSURBVHhe7Z0JXFTl+scfRFYXZFcRcEUR0NwVRdFcrvs1M9cy/5qae2ldTa9l4Zo3veWW5pp1LTPNLTVTXDJwKRRz3wAXFgEXkE2Y//m9nDEYZg6DAwiH5+vnFOc958w5M/P+3ud5zsz7G7MLiU81xDCMXsrJ/2cYRg8sEIZRgAXCMAqwQBhGARYIwyjAAmEYBYr0Nu+W88n09bkn8lr+VLQ0oyG+NtS3QQW5hWFeLEUqkA8OJtLExuWpRVVzuSWbTRcyKFM66wgfC7klm8fpGhp/OJ3mdbaXWxjmxfJCUqxMjYay9MiykhRBShLhZ07S4plTKS01RW5hyhpFLpD0LDNKyaRcS4bU9jQrdxuWVGlhmJKEwRTr0YNEsrSyImsbW7klG400+sfHRpODsyuVK6esL6RYT9IzKeWp3CCD9AqY6wQMF1szypQ0q5Rixd67Q2uXLKCQI7+Se83aNG7GHKrX0I9WLPiI/Dt1pRbtAsV+Rw/soat/hdOISe/Rfel6dY9p+FIzirp5jb76bD41b9uBtm1aS6kpT2jwW+Op98DXadOKJfTDhtXisVyqudGcL9aQe626Yp0pO+jt4Y8fPqCgd9+mzz+eKf7WAnEc3vsTvf1qDzp17LDcqsy/WljRnn62uZZNgZm0ocPTPO3ru9nIR+kH17Js7mxq5t+efjwRTmPen02bV/2XHj1MpOZS25kTxygrM5OeZmTQudOh1KR1W0pOeqz3mPi4GPGYdyIjyEwS+podv9C8VZvoyP7dUttNenPiNJq/ejMF/qM3rfxhL4ujjKJXIJXsqtDQsZPpj5DjtHLBHNExteJYFvRv6v7qYHpJ6nzPi0b6Z/Yc5UbUzesiqgV07UHm5ubk5eNHDo7OdFfq5A0aN6G46LuUmHBfRIzEuFjyrOuleAyo4VmL2nftSRaWluTmWZOq1/CkBwkJYhvDGMyRGrdsQzMWfi4KVYhk++Z1Qhy9Br0uiWcSWVlZy3sqUy7lAd26G59rSXyUIi1P8rRHxSTKR+knU4oOIcEHaUBAE+rVzIv6t21Mwft2CWHYOziRm0dNirh2RYjCs44XOTi5KB7DMPmhWERAJNOCFguRrFu6sMDiAFkWtuRYpWKuxdbagmysLfO0O9opf/6BCNChWy/64XgY7T5z5dnSqec/qZy07aVW/nTq+BGRarVo31GKUmaKxzBMfihX2RIQyXvzPqPXx00psDgE5S2pkq1VrsXKsjxZS4tuu60kGiUQIZ4kJ9GJQwdErYHU78ev14qbBqBOAx+6cfkC3Ym4IVInkN8x+YFjUdMwZZN8BQIaNW9FA0eOK7g4DICRXfpv9koO8EGhEnYOjvT29A8p9Miv1M/fjyYO7ktVpDZ7qaYAlavYU9M27civWUtRR4H8jlHCo1Ydca2Th70iie6m3MqUJYr0k/Sdl5Jpc3gKJWcYd4oKFmY0rJEt9amf+9Yyw7woilQgDFPaMSrFYpiyCguEYRRggTCMAiwQhlGABcIwCrBAGEaBAgnEWcMTh5iyhZkGX9M1kvuJSeRkX1FeYxj1wykWwyhQKiLIHwnRtDfqsrz2N93cvaiFQzV5jWEKn1IRQRaGHSX7CpXI17XGs8XD3plGHd5G/D0ZpigpFQJJSk+j3nV9qWlV92dLoEddcqtgxwJhipRSkWK12r5Sihpu4m9r8/J0KT5W/J2lySLb8vDWMqN3GrelzlWz54AUFYmJiTRt2jSaMWMG1a1bMueox8fH0zfffEMjRoygSpUqya25uX79Oh0+fJjeeOMNsrRUnoNT1iklRboZXbkfS4kpKfTDpTCa2DRALJObdaC3GvvTQO+mtCTsuLyvMpiCu337durcuTPVqVOHevToQfv27aOsrCx5j9JLivT6fPbZZ9S8efNc4njy5AlNnjyZFi1aJNZr165NVapUoQ0bNgivAcYwpUIgTjYVaGrLjrT05X5iPWeqpU23jAGdAeLYv38/ff3113Tt2jVatmyZ6CjHjxsnsJIMooKzszO1atVKbsl+zrt37xbbtGASWLdu3ejy5ctiYQxTZAJBOoKRSxe8Yffu3SvQiI1jIiIj6fLVq2K9z7bVeZaoR8qGDwDXtGvXLho3bhxVq1ZNdBSMpv379xeiycjIeBZh2rVrRw0bNqR3332XYmKyLYJyAnGNHDlSPCbA6P3OO+9QaGjos79XrFhBw4YNo/r164sR/OzZszR+/HixjvYbN26IY3EMrglibdq0qTj3nj17xPPGcvToURHpEPFyHpcTnDM4OJgCAwPFPHwtuE6If/To0XJLNogwTZo0oUOHDsktjD6KRCAPHjygMWPGiFwdf2vBm71jxw4xehXkjUFHdqvuRrVr1hbrQ7yb5VkcbfOvjRISEqh8+fLk7u4ut2QzYMAAmjt3LllYWAihbNu2jbZs2UJhYWGiEy1cuFB0wIKCemD16tV05swZ8dxxjunTp9OFCxeoU6dOIopBkCAkJIS8vLzo1KlTYj/UERDf7du3aeXKlbR48WK6Kg0Qffr0oSVLluQZfO7fvy9e65zPDfsgOg4dOpRcXV3l1r/x9fWlixcvUnJystzC6FIkAkF+O2XKFDp27Bh9+OGH4o3TimPmzJk0ZMgQMUo+L6/U9cuzWJfLbZCtD3TYnILVJS0tTQgXkaFGjRqigO3duzclJSXRzZsFn5PetWtXsrW1pYoVK5K/v7+oDdCBMcL7+PiIa0lPTxf7dujQgQICAsS2Ro0akY2NjRA0rgGvHSJBamqqiHYQkLV1bn8ARDmcC8dpgdirV68uzqsPXBdEpL0GJi9FlmKhQyBlQPoAkaxdu1aIA3dOIB7dN1gJdJA7d+/QjVvZqcV1KcXQXYzB0dFRiNcQSPswoqOjabGysqIKFSrQ48eP5ZbnI2faUxAw8n/66afidUTUGT58OEVK6aau7SuuG5EWC9DeqUJ0NHRue3t78ZwxcDD6KTKBAIgEd1Xw5s6fP/+5xAHwpnt6eFD9evXEuneDBnmW/HyCAfJujMJRUVFySzZbt24V4kUnQ2fKmb4gqmCkh1BeBKiL7OzsKCgoiE6cOCGi24IFC/JEQlw3BhIs4KeffhJ1TJs2bUTtgtTuyy+/FBFIWzfh/3jdMHAw+ilSgQCIZOnSpaLYfR5xaLmSGEdhsXfE30g9dBdjin4XFxfq168frVu3TqQk6EwoeNGZevbsKVIOjNKIdsj9IRjcAkY76oOcODg4iLokPDxcnPv8+fOi1ihsEAlGjRolrhMDhaGBAJEGwtbWSni9cax2gahQF6K+QuQASB0RLfmzEMMUuUBA69atxd2b5xXHOy+1oyMRV2nTuZNiPVnqCLqLMaCDQSDI91G44sM+3G3CHR6MtAA3EDDKDho0iPz8/OjkyZM0a9asXGkXgEBw3AcffCCKXdRXuCNW2OCO11tvvUUTJ04U14uCferUqXlSRScnJ9GmGx2VQNHv7e0tUkjGANIoajRxCY/lv14MmdLismGuJkKTlmfp8fOm7J3KMIcOHdIsWbJE8/TpU7nFMMnJyZpp06ZpLl68KLcw+iiWCFJYoPysaGlFR6Ku0ZmYqGfLlot/iPayDiJ1XJyUioaFyS36kd532rt3r7hbhgjFGKbUTZg6lXCP9kVmf2CopbIkjl4eDahORTu5pezC38UqXHhGIcMoUKpSLIYpblggDKMAC4RhFGCBMIwCxSoQFPkMU5rgCMIwCrBAGEaBYv0cpLg/R/kjIYYeZqTKa9mYSf8CXT3kNYZRRrUC2RF5iRafPUaVLXJ/QfKRJJhpjQPonx4N5BaGMYxqBTI37AilkIZGv+Qvt2SzOuwE2UhRZOZLHeQWhjEM1yAMo4BqI8iU3/fS7lsXqaJl7hQrKT2VurjXo5Xt+sgtDGMY1UaQ1lU9yNepGg3xbpprQVtlHdEwjCFUKxBnmwrk61ydBjVslmtBG74ebwxwEsHXxjdu3ChcWOBZtX79+mdWPZgX/sknnwj/rJzbCuqLBTBlF21K3ldM8aPqGiQpOZmiY2JzLWgrCLdu3RLzwGEHtHnzZmE8BwsgCAECwHRVTFCCQcKBAwfo9OnT8pHG+2LBpWT27NliCu+VK1do4MCBer2vmOKHi/R8wDzzXr16iYlFtWrVIk9PT9HxIZoJEyaIueLYVrVqVWrcuLHo7FqM9cWCgHBs27ZtxTZEK4jj7t278iMxLwpVC6SiNLpXdXXJtaCtMIABBLyy4PaOFAuGCmvWrJG35sWQNxV4+vQpbdq0STinIMWCkGAXqmvtwxQ/qhYI0heM0DkXbf1gKhjhYaWDVAnWP5jGClud5wF2qHAuQc2jtemBqbQhR0Sm+FC1QB48fJjHgRFthQFGfRTjlStXFusoqnPWHwUB5glIs+DPC48tmHsjGpnq5siYjqoF4ujgkMeBEW2FAYQxduxYYQuKFAuuhahRnscIGmkV7FmXL19O9erVE+6JuNOF2oV5saj2g8Jfo2/S4egI/qoJYxKqjSDmkgjgmbXm7IlcCzy1fBzy/hQAw+hD1V93/ynyMv2VkPvHbyCOvh5slsYYh6oFwjCmouoinWFMhQXCMAqwQBhGARYIwyjAAmEYBVggDKMAC4RhFFD15yDsi8WYimoFwr5YTGGgWoGwLxZTGHANUgC0ZgyhoaFyC6N2VCuQuJRk2nLxDPXZtibXgrbbSYUzaUoJzA7EvI7ExES5hSmNqFYg7IvFFAaqFUhh+GKBc+fOUd++fcWswTlz5ojpsFoM+WJt3bqVunXrRsHBwWJeuTYlY++r0oeqaxBTfbHwo/z/+c9/6O233xbGDPhd8fv374ttSr5YAwYMoP3791NgYKBYb9WqFXtflVK4SFcgIiKCbGxsKCAgQNj2YM65n5+f2GaML1ZO2PuqdKJqgZjqi4UoAYFADLoU1BeLva9KJ6oWiKm+WBjpcWsXVjy6FNQXi72vSieqFoipvliwGYVAjh07JoQFT16IARjji5WamioWwN5XpRNVC8RUXyxnZ2d67733aMOGDSKNgss7OjrIzxfLzc1N+Pp26dJFCIe9r0onqv2qCftiMYWBaiMI+2IxhYGqv+7OvliMqahaIAxjKqou0hnGVFggDKMAC4RhFGCBMIwCLBCGUYAFwjAKsEAYRgFVfw7CvliMqahWIOyLxRQGqhUI+2IxhQHXIKWQmJgYthMqJlQrkKL2xTLVRK4gxy9atEg4pQBM1Fq1ahXt2LFDrDNFi2oFolZfLEzdxcSrESNGyC1MkYIaxFjiEh7Lfz0fph5fEA7eu6GZ+edhTYQmLdeCtqA/g+W9lMnKytIcOXJE0717d03t2rU1Q4cO1Vy/fl1z9epVTUBAgGjDsnDhQrF/eHi42AdtOObUqVOiHfsPGTJEM2/ePE3Hjh01v/76q97jdUlISNC88sorz/abMmWK5smTJ2L/77//XvyNtuXLl4vzenl5aSZNmqQJCwvTjBs3Tqxrr1lLzmvU3cbkRdUCmXx8tyY0OirXgjZjBRIZGakZNGiQ5q+//tJkZmZqvvvuO82ECRM0ycnJzzpnSEiI2Dc6OlozcOBAISjsGxwcrBk8eLAmPj5eCCQwMFCzceNGsS6lSXmOV0IrCC26Avn444/FNT1+/FgzceJEzYABA8S14zxr167VfPTRR+LviIgITb9+/cQ1Yn3nzp3Png+jHy7SFYDflfQaCScSmC/079+f5s6dS9bWeVM0JycnWr16tfC7gk2Qr68vWVlZkRQFxPaaNWtSz549ycHBQbilFCZdu3YlW1tbMb/d399fOKW4u7uL8/j4+AhrITi6sDdXwVG1QEz1xXJ1dRWmDCikYe8zfPhwYQynzycLbXBYlEZoYdDQsmVLYe2jBdv1HVfYKIkPBT57cxUMVQvEVF+sjIwMsrOzo6CgIDpx4oRwIoEXlr4OBY+rZcuW0eLFi0XEgZMJ3EtKEuzNVXBULRBTfbHQgUaNGiU8r+CkqC8CaH2tkIIhJUP6Bd8rRJ07d+6IbUoY64uF/ZDumQJ7cxUcVQvEVF8s+FZhxIX/LqxFV65cSVOnTqUqVaoIS9KOHTvS+++/T5999pnw7H355ZeFE3yLFi3EKG1vby+ilj50j1cC+61bt054dKWlpcmtBYe9uQqOar9qUpp8sfCpOCIVapic9OnTh+bNmyfExLwYVCuQ4OhbtPDsMWpe1V1uySY48hpNbdyOv6zIGIWqv+7OvliMqahaIAxjKqou0hnGVFggDKOAGb4fJf/NMIwOHEEYRgEWCMMowAJhGAVYIAyjgKqL9L+S4ulxZu7vLplJz7ZVleryGsMoo1qB/BJ3k5ZfDtHrizW+fmvq4lxLbmEYw6hWIF9cO0mZFuX0flnRPCOLJtZtKbcwjGG4BikGUlNTaPasGfTHmdy/o54fDx88oLi4WHmNeRGoViDxqU8M+mLdTX4k71WygIAgJAgK/Lx3N23csE5MlWVeDKoVSAvnGgZ9sSpZWsl7lWwGDRlG096bLqbKMi8G1QrE0dqWfJ2r06CGzXItaKtkYbxA7t27S9Pfn0ptWzejIYNepbNhf4r2mzdv0OSJ4+j7Ld9Sn57dqEunANry7eZnc94vXDhPw18fTAH+LWnxogUUExMt2g2x/Iul9PaYkbR/314aNOAV8fi7du4Q7QDR5d0pE2jlii/EuXDOfT/voT27duo9f1paqog+aNfdxhiPqmuQpORkio6JzbWgzVgePnxIC+YFkX/bdnT0t5NiNF/95YpndUFUVASZlStH27bvouUr19CB/T9TZGQExcffp1XLl9GbI0ZS8LHf6bWBgykhPl4cY4jxE6fQyi/XUrd/9KAtW3+kWrVqy1v+5sb169S2bQDtP3iEZsz8Ny2cH0Rp6Wm0fede2rDpfxQcfIiuX7sq5q5v+d+3dPPGddqxax99+902OnUqlE6dDJEfiTEWLtIVuCWN4lZWltS5Szdhp9PQx4ccHZ0oKjJSbPf0rEVdu/6DLCwtycPTk2q4e1BiQgLdjooiaxtratXaXxyHbd4NfcQxptCo8UvkVb++MI9o0KChtN6EmjRtJs7h6ORILi6ulJSURI8ePRIRZ8jQ16lChQrk7OxCgR1fpjOnT8mPxBiLqgViqi8WUpIjwYepY/s21Kp5Y+rQrrVIgaKj78l76AfHWVvbSB3ZTG4pfBR9tqQIkvT4Eb0+dKC4bixBH39I9+/fp3Qp4jDGo2qBoKOa4ouFkblrt+5SmhRCoafPPlt69Owt76EfHIc7UVlZL+gjJjMzqmJvT//7/sdc1/3hnCCyLCU3KEoKqhaIqb5YHh6elJycRIcPHRTCQk3yzeaNFBube567LjXc3Sk1JZVCQ06I4yIjIujihb/krcrgfBkZpt3WhY1Pw4a+tH3bVnHNuIaDv+yXapDn+6mGsoyqBWKqL5a9tO97//qAjh4JpvZtW9LrQ14je3sHUYcoge3jJkySCuVvxHHfffetVL/4ylsNg8IcBnXDXx8kiv3nBRFs2BvDyUmqPV7t14sCA9rQuXNnpfqFnVwKimq/ahLy8C6FPLhb4r5qglu3qAd0wR2sps3YArSkoVqBhEriWHYlVK8v1rj6rfjLioxRqPrr7r/E3qRLD+PktWwa2DlTFxcWB2McqhYIw5iKqot0hjEVFgjDKMACYRgFWCAMowALhGEUKFZ3d4YpbXAEYRgFWCAMowALhGEUYIEwjAIlWiBZ6WkU8+t2eS1/Es8cJU2m+ixyYmJixC/hFjXx8fH0+eefK/5uOn47/quvvhKTz8oCJVogN7+aR5eCJtD94z/LLYZJPH2Ewt8bTH/NGiG36AeTh7Zv306dO3cWvxveo0cP2rdvn/hh/aIiJSWF3nnnHQoNLfiEJXhirVq1inbs2CG3GMaU8+BY/F578+bNqVKlSpSRkUGXLl0Sghk9evQzgdauXVv8TvyGDRuEOYTaKdECsXJ2k8JIJl38eCzF/35Qbs1LQsivFP6vYZSVkU42HnXl1rzgDYU49u/fT19//bX4sf9ly5aJN/v48ePyXiULeGLhx/9HjFAWvqkcPnyYnJ2dqVWrVmJ9+fLltH79eiEWiEcLJnR169aNLl++LBa1U2QCwYjz5MkTee1v0Env3btn1IitTZcypce58O//o8RTwWI9J4gu5/89QkrHUsV6OQXPK1zTrl27aNy4cVStWjXxZmNE7N+/vxANRk1thGnXrh01bNiQ3n33XZHiAAgKHXXjxo1ie9OmTUUnwjF4XkePHhURCZFp2LBhdOPGDXEMOtTOnTtpyJAhtGjRItE2dOhQmj9/PnXq1EmsP3jwgD755BNxzpyPC3DM1q1bn/0NUU+ePJnq16+veB5D16QLBBAcHEyBgYFiNiKYMmUKLVy4kAICAsjS0lK0aYFomjRpQocOHZJb1EuRCARv9pgxY2jGjBniby14w5Aq4I005sUVAtFIQjKTRJKWQuHTh9GDP3+TtxLFHt5JFz8aTVmyVScoZ2Eh/5WXhIQEMSK7u+eeRDVgwACaO3cuWUjHQijbtm2jLVu2UFhYmOgI6CjaUfTWrVvCTQTXv3nzZiG4mzdv0u3bt2nlypW0ePFiunr1KvXp04eWLFlC1atXF4+J9W+//Zbef/998Th3794lNzc3+uGHH8jDw4NWrFghLHpwzj179tCBAwfo9Gn9Xr7o9EilwsPDqXHjxvTjjz8KAeiex9A16Q5ccDvB+6T7uijh6+tLFy9epOQC+IyVRopEIMhRMQIdO3ZMpAd48bXimDlzphjhMALnh+ZphjhOC0b89Ad/G7BZVnHMs92svGGBoAjNKVhd0tLSRMcfOXIk1ahRQ4ycvXv3Fl5TEAFAxOnVq5fYVqtWLfL09BSPi3VcC0by1NRUEZUgOmvr3D+/oKVmzZrUs2dPcnBwEMKcMGECTZw4UTxO1apVRcePlP23dIGgcTz2bd++Pd25c0ecUxdjrwkR0tbWlmxsbOSW/IExBISm9mK9yFIsf39/kQqgYIRI1q5dK8TxxhtvCPEY6jg5yZJSHi3lrG3I+6PV5NKxj9wiCbFJW/JbsJnMraQ3FjoxK0dm5oZ9bB0dHYV4DYG0D2kNOosWKysrMbIr3dkBrq6u9Omnn4rni7Rp+PDhooMb8q7K6WsFYePxp02bJlKsunXr0po1a8Q2UzD2mvCcxeAiLcZib28vXi8MDmqmyAQCIBLcGcEbhHy7IOIAWRnZJmflLK3J95P15NSuu1jPiX2LQGr4yToylzu1kkCQO2MkjYqKkluyQX4P8aKjIAfPmYIgqiDqQChKoH6xs7OjoKAgOnHihIhCCxYsUIxYWnA+7ItOjLQJt1KRopqKsdeE54xIkzMa5wfqOQgNg46aKVKBAIhk6dKlotgtiDhASuQ1qaawJL+Fm8mh9ctya14c23Qm79mrpGdjTmlxd+TWvLi4uFC/fv1o3bp1Iq1Ah0DR+tNPP4l0B2kDOimiHfJ3CAa3gNHu5eUlP4p+0KlHjRolHg8jsb7IYSgK4VYuapzKlSuLdTyGofrDGLTnMeaaACINRJrzblV+IO1EpEUap2aKXCCgdevWNH78+AKJA/gErSe/T/9H9s07yC2GQXRpMGsZ1Rr1gdySF3QSCKRDhw7iLhJSGRS7uM/fpk0bsQ9uICBXHzRoEPn5+dHJkydp1qxZudIufeCO0ltvvSXqCDwuiuOpU6eKlA65fceOHUXhjIiqC4QxduxYkQ4hxfryyy9FfVPQAlj3PErXlBMnJyfRphtZlUDR7+3tLdJPNcNfd2cE+Bzk7NmzQkzaW72GQLRBXYmUrUEDdZvRFUsEYUo+iPJxcXHiNrMSGE/37t1LjRo1EhFK7bBAGAHSM9SJv/32m+IdO9QzKPIHDhxYoLtepRVOsRhGAY4gDKMAC4RhFGCBMIwCLBCGUaBYBYIin2FKExxBGEYBFgjDKFCmBJKeEkNx17+nxNsHKD1V3V/TZgqHYv2g8EV+0Bj151xKTjxJ5hZZ4usSWZnlqZJzF3LzHS/vwTB5KRMCgTjSkkLJ1debzC2zv1Gc+ughxV26RhWdOpOb3xTRxjC6qD7FSk+No+SE38jVx5uynqZJorhFcZevk4WVLTnUrkFJ909Q5tO85hIlGSWfLExOw1f4ded2YPYf5tOXFT+rwkL1Anl09wiVK29O5lbWlBgRR1a2nSgrw40e3rtDFZxcSUNJUnTRP/e7uDHUuXNSEJ+snEBU06dPF/M48gNz2PFVdkMiLEuoXiDlLe3lvzCKplFGeqxUf6RJqVZ2m5mZOWWmP8peKQU8r08WbI7g1OLj4yO3MMageoGUs6wkRYynkgjSyKGWuySSc2Rjn0R21WvSo9u3JNVUpkouLeW98wLHEMyGxNwH+EthKizSFIzGmGSkZffu3TRv3jwxTVffMQAjMzq2Pl8t+FjB7QW+VpjViH0NkdMnC3PsMXsQMxFxrl9++UW064JogKiAx0WEQqSCeR68snCd8NmCAQMeF+eHTxZcFhHVwPnz58W+uv5aOD8si3B+PCdYJOE5aqOPodcCj/vmm2+K1/HVV18tsdFK1QJJTginm79PoSo1q0oRw0qKFuXJ2as2VfGQUqw7tyghIpoca74i750XzHvAdFtM0b1w4YIYuTG/Hm8m2uBPhc4Nc4SQkBDRQTCXQt8xWvM5Q75amCYLPyt4V8HfClNkjQHHo9PjWuCPld/U4Jygs+Lazpw5I+7s4ZpgKYTzw0QO2+G0CCeU2bNni6nJV65cEXNBtP5aBw8eFMdjsMDxsDB69Cg7Iht6/bSvxblz58Q2eP3CXKIkolqBPEm8SNeOjyMXby+qXM2DYi9foNtnwikq9DRFnfqDHt9NI5c6o8mpdn/5iLyg48HNBIYOmIaKWXSw50Qnx+gP8zeYrkVHR1NsbKwYJZWOAYZ8tZ4HOK5gJEanxrxyzPlv27atvDV/ELFwHEwp4KCo9f7SBQKATxceG88JAwHEgeeESIMIAOMHPKec58/vtcDjQCCYD2/IUOJFo0qBpDy8QtePjyUXKVrYuXlS7KULlPbQhrzabyb3lxZTNe+Z5BW4hZzqGBYHQHRAyoI3FqkF3ASRAkEY6Fgwb4M/LToCXE/gmqJ0TGGjz8erKMCNgU2bNonniOeE1AtexoikOD/M7/SR32sB0ZT0WYmqE0jKw+tCHI71PMjOvWZ2m/RGOrj3JAsbJ7J18KbKrq1Fe37gDYSzotarSrvAGQXbMFpiBEV6A7sgvNlKxxQ2GHVxPozmRQluDMAdBQOB9vlgYGjZsqUQp6HzF+drUVSoSiCpj29J4hhD9rWqUxX32vQ0NYWuHzogCaM83b3whbyX8SAFgv8TcnKMhsipkS8jpQIYEZFbo2BF6gTyOyY/cCxqGmNA+oIaAYU1Uj0UzJhTXhjgsbAARACkWaizELVgPg7nR2zHIIHaCXUFbl7kPL+pr0VJQFUCib7wX6pY3Z7sPetIKVWC+OwDd6+sK3SStppTZkbBfKbgGjhnzhxRiOIuDWoHtCGPBrDfRO6OTqr1msrvGCVQmCMK9e3b12A9oAtGaAgVHr34zRPUAaZ6VcFUG4Lv0qWLKNSRHqHAxk8i1KtXT9wNQ72F2gXnhKdY9+7dRRTFXSstprwWJQXVfNUkK+MJXft9JFX1rknxkdfoYWQUWdhaU3krC7JzHSi1j5L3LB0gKuAWqC4YrbW/4VESQPfBoi2ycdPgm2++ERanRV0bFQeq+i5WQsROio/YSpa2buTWaAYl3/+TosLmU0ZKAjXpf0reiylMEB0QZSZNmiTSL0QaRBl4C6vBFqhMfFkxTapNrCplF+xM4YI6BL/QtXr1arH+2muvCbGoIXqAMiEQhnleVPk5CMMUFiwQhlGABcIwCrBAGEaBYhUIF+hM6YLo/wGPf69LhwnydgAAAABJRU5ErkJggg==;" vertex="1" parent="1">
          <mxGeometry x="90" y="70" width="200" height="195" as="geometry" />
        </mxCell>
        <mxCell id="GTp7Qgm1005vjMaOhcDN-9" value="" style="shape=image;verticalLabelPosition=bottom;labelBackgroundColor=default;verticalAlign=top;aspect=fixed;imageAspect=0;image=data:image/png,iVBORw0KGgoAAAANSUhEUgAAAMwAAACKCAYAAADmI6WDAAAAAXNSR0IArs4c6QAAAARnQU1BAACxjwv8YQUAAAAJcEhZcwAADsMAAA7DAcdvqGQAACLoSURBVHhe7Z0HfBRF+8d/gRQSICGhl4QqGHoJnUh5EZQqIMJLE6SDCAio2BCU5ktTkCq95Y8UBSmK0nsNoqj0EHpIQkkICeX++3uyF9PucpdcJLnMV/fD7czu7Nzu/OZ5ZvbmicOZ8CcG2JCA3yOx/LeH+l7K5HJ2QJeKrmj7Yk49RaF4vnR7f5b+Cdg5ta/+KRabC+bDX8IxpIojahbKrqfEsuzMYzzVrtSrgpOeEsuDGAMG74zBhKaeeopC8XwxJ5hs+r/pDsXyLBlp5tYsTEbg9PEjmPLRCEQ/itJTnh+sA+vCOikyFukimJhnDoh6igRbjLY9eZYwjdsjbVMoMgsJXLL7d8Ph7OKCHK5uekosBoMBobdvwit/QWTLZl5jdMkeauqIeqIn6NDCkOyJDEoBNwc81XRryiULvnQecyaNRbW6DbB5zSo8inqIzn0GoYhPCSybNRXXrwShVefu6NLvban3s6dPsWvbJiz7Zjruh4clyIuOfoSNq5di3dJvpez/9h2M1p26Y9ns6Vi7ZL6kFShcFGNnLoB3yTKynxiW8cPKxQhYMBvunl5o+EorXD73F0Z8PgVBF87hu8VzkbdAIQRfPI9PZ8yT+i6cPgmHdv8K7xKlMGj0WJSvWkPKun3jWpK83B4eGDOkr+SR13v2Q88hI+Wz4t/BIpfswb27+OLdgfh63Efy2QjFsnPLDxj4egsc3btTTzXP+zVdsLmdW4JtWaOnWNLwSZL0xc1d9bNME37nDop4l8CiH3diwtxlWqNfhj9OHsPUZWuxZOseXAu6FOe+HNjxM37ZtB5TFgdg1Y7DeBjxAL/+uEG+B8Vy5cJ5KeebNT/i1JGDCDxyQBrkxPkr0OiV1pizdotJsZDDWuM+E3gCCzb+ggXfb4ejoxMiHtzXc4Gzf5yGX72XMOar+XLNWeM/RQ1tf/2B0+j/3qdYMfcrhIbcknucXJ5brtxSB9aFdVJiyVjECSa3Rx50HTAUJw7tkx6dD9QolllffIJXX/8vqtaprx9tPQbtP4dUDlcKFi2GSjVqiXUr4lMc5SpVgV/9hnBxyQH3PJ5aAy+Nu6F3EBMTjSOaqNt1ewv5ChYWq9JQa3h/ag2cjfR3TVTMc8uZC3k1a1m38cv47dhh/Sopw/KP7duNl9t0kPOdnJ1RtXY9PTeWato9qlH/JbmfFDIttn+zFsiePTvKVqgEr7z5xSoGX7pgMk+RcUngX1WpVRejJ38tvTVFs2HFIhEL3ZquA96RBmoJ2aLu4vL10ARb+P0obXuYJD34Vrh+lmU4aKrLni3hDJwRw7Nn4pKNHdoPrWqUlW10v27i3sQ8eiSW4J0ubePyvhr3IcJCbosQLMFYPl0xU7BurCN5qh17aNcv6OhfTa7XoX4VcRdDbl43m6fIuCQZkFA0I7+YIqJZNGOy1WIhz5zckDeP1ovH29xyOME1h3OS9Lwetnv/4qBZoGxabz1+zlL8ePxs3PblogDp8T3yeGH2d1sS5L077ks4O7voJZgne3ZH5HBzk3GJJdByNGzeCmv3BSa4ZpOWr5nNU2Rckh3BUzSjJkxD90HDrBaL4OiM3G4uCTYXZ62xaVvidDdNRLaCDZ8u0qb/W447t27gmWYR6HLt/ulHuLrlxAua27N17WpxN2kp9v68RcYxRh5GRuDJ48f6XlIcnZxQtVY9KYMu3uOYGAQePqDnJqWoTwkpk+MqXo/XXb98oUygmMszwvGXImORrGBIZb/a6NR7kPViMUGsm5J0EMMXl7aEg+V6TZphZK/OaFe3IjavWQHfytWksbfv0QdeBQqg72sv4/UGVfHnbydRqpyvnOejjYNYx6Hd2svYwxS1G/4HlWvWweA3Wkk5xtms5PDwyouBH4yRiYJ29SphyH/bIo+W5qmNVczlueRwhZ9/I0z/7AMsnz1DL02REbD5m/6Nf0VixekoRD62rNicTg7oVtkNbcolnMp+nmz/Ya2MbxLDWauK1WvKZIhxep2u65a1qzD00wlJpuMVmRNz08o2F4y9Q4vwR+BxebdDl4+TIz6ly+D1N/vFDfYVmRuL3sMoLINT63y52LNFQ7zVqjE88+WXl59KLFkDZWEUikQoC6NQ2AglGIXCCpRgFAorUIJRKKwgRcHkNzz/BVUKRUbBwcC3cGa4Ex6BfJ659D2FImtxPyLh7waVS6ZQWEGGtTAnwm5iS/Df+t4/NPcui5pehfU9hSJ9yTQWZnLgHnjmzI2KBYvFbT6e+dFn5zqoN62K50WGFUxETDRal6mI6oW847ZGPmVQNKeHEoziuZFhXbLaG+ZoVqWofM6R3RF/hd6Wz88Mz+DmyNhmDhhepT6aFiop6elFeHg4Ro4cidGjR6NMGdNr/Z8noaGhWLlyJXr16oXcuXPrqQm5cOECdu7ciR49esDZ2XZrkOydTDTod8DZO7cRHhWFtX8FYkh1f9mG1miIvlXqoZNvdUwP3Kcfax4uB96wYQOaNm2K0qVLo0WLFti2bZv82jizE6Xdn2nTpsHPz0/E8vvvv6Nbt27yPfl9N2/eLMsRSpUqhTx58mDJkiWyr0gdGVYw+VxzYkStxpjxn3ayH981M7pnlsDGQbH89NNPWL58Oc6fP49Zs2ZJw9m3zzLBZWRoNfLnz4/atWvjypUrmDBhAoYPH45z587h66+/xty5c0VE/DV18+bN8ffff8umSB02FQzdl4cPk653Z6O9cSN2ybCl8JwgrQH8rT140mbd/CRb8P2UA2iwTps2bcKgQYNQuHBhaTjsbTt06CAievz4cZwFatCgAcqXL493330Xt27d0kv4B4qtd+/eUiZh787Gefjw4bjPs2fPlh6+XLlyGDp0KE6dOoXBgwfLPtMvXrwo5/Ic1onirV69ulzbaA247dmzRywhLUX88+LDa+7atQuNGjWSGAFhYWGoUKECKlasKAvcSpYsKW6k8ZnQAlWrVg07duyQfYX12Ewwd+/eRf/+/cXX52cjfPjff/+99G7WPCg27KJFiqJUiVKy38W3RpItr1vKYys2IkdHR3h7e+spsXTs2BHjx4+Hk5OTCGfdunUICAhAYGCgNKrJkydLg7QWjifmz5+P48ePy3fnNT744AOcOXMGTZo0EStHgZJDhw6hbNmyOHr0qBzHcQjFePXqVcyZMwdTpkwRS9GmTRtMnz49SWd0584dudfG71a1alV89NFHcHGJDerBvMjISOkojFBMf/75p6QrrMdmgqF/PGzYMOzduxdjxoyRh2UUCx9ily5dpBdNLe3LVEqy5TARbik+bMDxBZyY6OhoETItR7FixWRA3Lp1a0RERODSJdNr+03RrFkzuLm5IVeuXKhXr56MLdigaQHY+7MuMTExcmzDhg3h7+8veZUrV4arq6sInHXgvaNFe/TokVhDCipHjoTxFWgFeS2elxiKi2Mb1id+Z8F6Mc9YB4V12NQlYwOhi0F3g6JZuHChiIUzMxRT4gduDjaYa9ev4eLlWFfkguaSJN4sIW/evCJmU9BNZI/PhmeEPXTOnDnx4EHaorZQCKmhYMGC+N///if3kVbpzTfflPFJ4jC9rDctceLVnhTE1KlT4ePjg3bt2iXI9/T0lO/MjkRhPTYVDKFo2LPxYU+cODFVYiF8yMW1B17uhRdk3/fFF5NsKcV5JvTb2UsHBwfrKbF89913ImY2Ojbs+O4OrQ4tgdG1+bfhuMrDwwNffPEFDhw4INZv0qRJSSwl682OhZsRWg4O9Pm9OUZKLFq6fLxv7EgU1mNzwRCKZsaMGTJ4To1YjJwND0Hg7dgwRnRVEm+WTCIUKFBAetlFixaJC8PGxQH0Dz/8gJYtW4qLwl6c1pBjBwqIU85M5/giPl5eXjKuOX36tFybs08cq9gavjPp06eP1JMdh6mOgZaIQjeOtVh3Tjrw+CFDhiRr4ehq0pqqdzGpI10EQ+rUqSOzQ6kVy/CqDbA76ByW/RYbZDxSaxiJN0tgg6NgOF7o2rWrzBpxNqtfv36oW7euHMMJCY4TOnfujEqVKuHIkSP4+OOPE7hphILheR9++KEMnjk+44ybreGMWt++faXRs76cABgxYkQS1zJfvnySZrSeHHOtX78eM2fOFLFzho0bv69RVJxE8PX1FZdTYT0Z/uf9tCGFl07A0TeTRrEfuO3/sPmV7vpe1oTvYTh1bcqixIfWiGNLungvai6tImUy3c/7OVzN5eyC3cHncfxWcNwW8OcJSc/q0JKHhGiua2CgnpI87Be3bNkis3G0YIrUkSkEE9C8Cy6H3sHvN67FbS4GB0yo1Tz2oCwMp5Q5Vty/f7/ZWT2Ohzhp0KlTpwSzZgrrUCsuFQozqBWXCkUaUIJRKKxACUahsAIlGIXCCtJdMJw0UCjsBWVhFAorUIJRKKwg3d/D/NvvcU6E3cK9x4/0vVgctP8aFfTR9xQKy0n8HsauBPP9lb8w5dReuDsl/MHnfU1AI6v44zUf9fsphXXYtWDGB+5GFAzoV7WenhLL/MADcNWszEdVG+opCoVlqDf9ijTDRWjJBQnJCtiVYEKiIhHw53G0Wbcgwca0qxH39KMyBlyRGn+dSmr48ssvZeVoarG0DomP4zogrup88uSJ7Gcl7EowdQr5oGK+wujiWz3BxjR359QtZFMkhRE2ua6G0XiyHBzDmCMk7IH+KXWk9Xxr+OXGRcNHJ3caggzRCTamfXFyl36Uec6dO2fo0qWLYc6cOYb69esbqlWrZli4cKHh119/Nbz66qsGX19fw8SJEw2RkZFyvNbLGtavXy/HJs7TemQph2VwW7RokRw/efJkQ6lSpWTz9/eXa5pCc38M48aNk7KNZYSEhBjat28fV8awYcMMDx8+TPZYXo/wmlojN3Tq1Ek+W1qH5I5bs2aNpJNDhw4ZevfubZgyZYpck/dBs0CGtWvXxt2/+PUwdU8yKvceRCbY7G4MExEZiZu3bifYmGYNXJBVokQJCaa3YsUKiZLJ2GFc/st1J1wKTDeFGGOa0TU6duyYrEnhcdq9lvO4JJjlbN26VQJa8Pz33nsPq1atknhjPN9czGYex2XeXCDGQH+acCXGGa/JOHAMjsGYZVyjz/X8XHpsPPbnn3+WOhnheZqgZOm4pXWw5LizZ89KMEFei+GgPvnkEwkksnv3bnHfWA9G2zR3TzILatCfDIzjxdCrDCZB4TBAHhsEGy7DFHGdPIPoxY9pxmB5jAHAhsXAGBwUU1TMY0ANBqxgjDAG77MGd3d3CbHEyKEsY968eahZs6ae+w+s69tvvy1LlSmeQoUKoUqVKnKuEc0qyVp/W6/nr1GjhkQMZR0Y64D7tWrVkiXTDGPLurAjuXfvnk3uyfPE7gSTS2sMhQoWSLAxLbVwdaKptfLGmGaM8GIMOMGAhdeuXZPQTvfv35eggMY8RsC8ffu2CM1S3njjDWlUDIJBoTByZnIrJpnGRsm/NMDGS0uwYMECPTeWlNb82wKKhlty0MLY4p48T+xOMGzAjM0Vf2NaesCGwUbIRszQSMZN8/ElmgujzDBkU/w8hn+1NN4ZGxiF98orr0AbE8S5Y3RlEsMAF3TPGDKKYaB4LbpsGQmKOq335Hljd4K5q5n9xBEymZYe8CFrA1ssW7YsLtg63QsGP6fbw4AT9P+5lp6i5biCPrsRxghj0D5TsDxGEmXMNAo/uVkpWhUKSxs4y7QvXTjCNfzxxy+mSKkORiw9zhwMLpjSPcno2J1g8mo9WOIImUxLLzhmYVwzBjdnvC9aG0bjZ5Bzxhajn85en/HOTpw4Ie4SocvEHrdt27YmYzjTetFKMMAgx1EvvfSSnMfrkcaNG0uAwlGjRol4BwwYICFmeQ2OdRi931zQcUvqQCw9LiX4fczdk8yAXf005tebl7DzZlCm+2kMZ9joyyeGPTEnH/4NMkIdMiJ2/VuyXTcvY/KpvfArlPBPW+y6ch4jqjRQP75UWI1dC4b8cOVv/BGW8HdOFbwKoq2PCl6nsB67F4xCYUvUr5UVijSgBKNQWIESjEJhBUowCoUVKMEoFFagBKNQWIESjEJhBXb3HkbFJVPYErt+canikilsjV0LRsUlU9ga9aY/i2JpSKX4cD3O5cuXZS2OIha7EkxWi0tma1gX1skY4INxCfiTfwatUMRiV4JRcclsCwN7BAQEoEKFCnqKwq4Ek981JyrmL4LO5Wsk2JjmbuHf9D9//jy6du0qkR0bNGggqye5qpHRYVq0aCGrA7l2nmvoCZfZbtiwQY5NnMf1+CyHZXBbvHixHM+IlQyWsXHjRlk9yWuawlT5RmvAFZ7dunWTv70/dOhQhIaGynm89rRp0+Qc1nv79u2SbgrWgXVhnVg31pEhYRnhhXnG6zGUU/zrnTp1SsI2cZ/pXBpNzN2XzIzdjWHsLS6ZqfKNMG3GjBkS2onXpLAJ4wqwofPaPJ4hoMzBOvBarBPrxjomBwU5f/78uOsxDhndNgbn4LJjCphiSanemRU16E+GjBKXzFz5xrEPrUG+fPnkGv7+/iJmnsdrM84A81hvBuuwBfwOrAevV69ePfj5+cn94np9um4MbkFxpFTvzIrdCcae4pKZK9/czJXxvJSsSlpJzX3JLPHHTGF3guGDMsYjM25MSw/SOy6ZufI9PDz0o5JiPO95jRlSui+ZGbsTjD3FJTNXPj+bgufRpeT4ga4jrZ018YvpUqWF1NY7M2B3grGnuGTEVPnsxc1BV5BxjhnLrGnTphJvOaWYyq6urhLrjAN+zrClhdTWO6NjVz+NUXHJUoYzZ2+99ZaMJ+LDgIGmZsayMnb9WzIVl0xha+xaMETFJVPYErsXjEJhS9SvlRWKNKAEo1BYgQP/aKv+WaFQJMLZKaFNURZGobACJRiFwgqUYBQKK1CCUSisQAlGobACJRiFwgqUYBQKK8hwgjE8jsbdvZv0vZSJOLUfhqdP9D37ISTkNu7dvavvpR/hYWH4dv5cWZtjisuXL2HliqV4bGaVZ1Yhwwnm5oqpuDZ9BO4fNh/lhESc2oegsb1wZeJAPSV5uHhry+ZN6Ni+DWr7VUGXzq9j545f0nUx06NHUfj049E4cfyYnmI5T548wdIli7B1y496imnSch2eO3fOLFSpWk3W6HMx2/lzZ0VAI999J06wxYuXgId7HgQErJLAF1mZDCcY57yFuSgcV6cOxYNjO/XUpEQc34WgcX1gePIYLt6l9dSk8AFv3fwjdu38FbPmzMeho4GYOHkKAlavxJHDB/WjMhaOjo4YOeoDdO7STU9JH/bv24u8+fKheg0/2V+8aAFWr14h4uEqTSNc6NaoyX9w4fw52bIyNhUMe6TkooKw0d66ddOiHt3wLNa9eqaVEzxpECIC98p+fGh9giYPEveNODg6yb/JwTr9/NNW9HyrDwoWLCQPnz1mq9ZtNSvzq/SqRgvUpmVz+NerhTGffCguEbl06SKGDhmENVrvyvyXm/gjYNUKOYff69DB/WKxaLkGD+yLoKDLck7nju3x07YtGNi/N76ZOUPSBg3og69nTEOHdq1k/969e5g29Uu5ZvxyCc/ZtPH7uM+Lvp2Pjz98H/Xr1DB7HVN1Sgyty/79e1Gvvn9cMIt+/Qfhk0/HoXbdenBycpY0IxRRxUqVsW/vHj0la2IzwfDhjxwxFOM//0w+G5EeXnMtOndsZ9HNNrAhPtMajYMmmphHCPq8LyJP/xOa6N7+LQj+3zswaA/ciINjwocbn/C74ciu9dhFixTTU2Jp3eY1jP7oU1lKTOuz+ceNmLdgMXbs2icNY9bXM6RRkeDgIDhky4Z1GzbhmzkLRIBXrgThxvXrWLJ4IT4b+wUOHjmJ5q+0wLw536BQocII+G697M+ZtxCDhwyTcm7evCFhhxYuWo6iRYthyaJvJbILr7li9XfYtWsHTgWelGMTc1ATQf8Bg7Frz0FUqFARW7T6lihRMsl1TNUpcUcWFhqG+9pzKlqkqJ6SMi/6lsfZs3/bRUC+1GIzwTCKCXuow4cO4H+TJ4hojGKZOP5ztO/QEbXr1NGPNg1drARoFuHJ/TB9R3NX3L2oQn0vFnMWhoPa+/dMD55jYqJFyF269kDhIkXg5OyMZs1fRWRkBK4EBckxxYuXRLNmr0ieT/HiKObtI+U6OTvJd2RPz/BBLVu1EREyCERyeHsXR9OXmyOPp6cI9a0+/dC7T38pt0CBgpoQKuHatav60Qlp07YdvH185Ng6detLcIno6IR/B4dYWidaUFdXN+RwddVTUoYxASi8rDz4t6lLVrNWbUyYNEUGoBTNqpXLRCxvdOqMfgMGaQ8t5fjGhif/PAyHHK7wHvU1POq30FO0h1apDop/sgDZGCtZ041Dtuxw0F2K5PD08oK7h+nQPnQT6QYxAIQRFxdnrefPaXbmiOTPXwBjPvtCvm+H11rhnbcH4NrVYJOBHphuzKNrGBHxAGPHfCwuWZ2aVbFi+RLJSwuW1onfmXXQ/reYPNp95P0KC/+nA8tq2FQwhKIZ+/kEeWD0160RCzFaGAcnFxR/fzbca78s+/HJVdUf3h/MRja9kTtkc5R/k4O+N3via9cT9twcH0wcP05rOM/Eh4/vskRHx4iFdDZhKYxw/JPb3R0ffPgJfty6XazUzK+nJ3BJTcHrzfxqOhr4v4Rdew/i8LFT6PFmLz039VhaJ35nWqJExtosdzVLTeF5eaZfFJ6Mjs0FQyiaz8dPwoCBb1slFhIdfEFcrOKffotcNRrpqUnJ7dcYxUZ8xW4bMaE39NSk5MuXHy1atMbqlSvEDWEj4SB429bN4h7RzWCjpTWk/8+el1POTC9d2nTMYxJ0+RLeHfa2lMfeOlu2pN21KSvFqWOOkXLndpd9lhFoYvxiCcbrWFInQksUFfUQjxKNbcwRGRkplphuYVYlXQRDavjVRK/efa0SC/EZPQfFxyxGrioN9BTT0PoUHT4VhbqN0FOSwkbzastWqFuvPgb17yOuD99bdO/RE341a8kxjRr/R3z9/n17oZF/XZw8cRzDR4xK4KYlR+kyL6Bb95748INRUi4H2wMGDZHxXA7NnazfwB+fj/1E3nUkJnfu3HizZ298M+srvFS/FpYtXSTjo4dWBk5PfB1zdYqPV166qh6a5U0Ybskcly5eQNmy5dI9BG1GRq24zMLwPcwff5yWiQfj1LIp6EJyXNqla3eUeaGsnmr/qBWXijhq+Pkh9M4d/PH7aT0leejG/rr9Z/iWryAWLCujBJOFoTvHceaRw4fMzghyPHTv/l289lp7cXGzMsolUyjMoFwyhSINKMEoFFagBKNQWIESjEJhBUowCoUVqOj9CoUZVPR+hSIN2L1gYqJuIeTCGoRf/Rkxj0L1VIUiddi1SxZ8cjwiw48gu9Mz+XnHs6eOyJ3/ZRStOFg/QqEwT5ZxySiW6IjDKFrtRRStXh3FatRAgRdLICJkK66dnqEfpVBYh10KJuZRCCLD9qNgBV88exKNkL8uI+TvC3BycYNXqWKIuHMAT59k3XXpqYWrLS9fvoyYZJYo89fMw4cPx+HDh/WUf+DxPC89w1r9W9ilYO5f341sjtmR3SUHwoNC4OLWBM8eF8W9G9eQM19BGBChWZ8r+tHPBzYsNrD4Kz2fF+Yae3xu3bolfx793DnrQi3xeJ7H81Piyy+/lD/DnlGxS8E4Onvqn9grRuNxzG1t/BKN7PpCQQeH7Hgacz92R2ExjHgTEBCAChUq6CmWweN5Hs/P7NilYLI559YsyhNNFNHwKumtieY3uHpGwKNICdy/ellTkTtyF4hdbZmY8+fPo2vXrpg7dy4aNGiA6tr4Z9GiRdixYwdatGiB8uXLY9KkSXGhhrikecOGDXJs4jwGw2M5LIPb4sWL5Xj2ol26dMHGjRvRvHlzuaYpWMbs2bOlbF5j8uTJ6NWrF8LDw8Ui9OzZU3rv119/XdKuXbuGwYMHo1y5clLfY8f+iYiZXB6vzTqwLqwT62YKlt+7d++4+v72229o27at1G3s2LESySY5eDzPM9Z50KBBmDVrltwTfqfNmzcjLCwMHTp0wLx58+T7GK2vqXtI7t69i88++yzu+0ybNi3uPHPPhd+R53Xu3Nns900OuxNMZNhpXDo4DHlKFNIsiotmTRyRv2wp5PHRXLJrlxEWdBN5S7TXj06ekJAQlChRAnv27MGKFSuwZMkSHD16FOvXr8f+/ftx6dKlOPflp59+wrp168SNYAN88OCBHMdZOZ5Hd4TlbN26FQcOHJDz33vvPaxatQpt2rSR88uUMR074JdffsHx48exc+dOES3DM92//491ZKNt2LAhvv32W7nmxx9/LPtnzpzBmDFjMGPGDHGF2LiSy+NSadaBdWGdWDdL4D2aOnUqBg4ciNOnT6NHjx64c+eOnmueQ4cOoWzZsnJPx48fj5UrV0o672P//v2lcU+fPh05cuQweQ/5XXkeg36cPHkSa9askQ7BiKnnYoT3YNy4cdKBWINdCeZh+J84v28QCviWhXthH9z++wyuHj+N4MPHEHz0BB5cj0aB0v2Qr1QH/Yzk8fb2Ru3atSVCCoVTtWpVNGrUSB6gp6cnSpcuLY2Dcb/YiNl70t3gWnc2PDZwNlKKinmMXFOwYEE0a9ZMGoulsPxdu3aJ9eD5zs7OqF+/vp4bC3tQiiBPnjy4ePEiGH+sZcuWsuS4cuXKyJ8/vwy42cubyksNQUFBEvPA3z82cmbJkiVRqVIlPdc8rK/xPNaD5dDCJIaRbkzdQ+YdPHgQHTt2lPvO/Dp63Dtzz8U4Zmzfvr2IlsFOrMFuBBN17ywu7BuAApo18ShaHLf/OoPoe64o+9IKeFedgsK+H6FsowDkK21eLInhCkNT692NMc369OkjIuJGt4Y9HV0JWoLWrVvH5dHVuH37tjxQSzCW7+VlOqwR62ZcBcljt2/fLo2Q16tYsaK4Wtf1aDim8lIDy2NDTxzvzJbQipi7h+wAKJTEmHsuxntv6pmmhF0IJureBRFL3hd84OFdIjZN85e9vFvCyTUf3Lx84V4w5aib1sLGwhu/fPlyXLig1UHf6B6wx2dD37ZtW4K8KVOmyIO2BAYlZ+9oaWhW1oWNiy5S/Gu2a9fObF5qYHnsrdNzqpgdgal7KOGeNPc0uSnulJ5LWsj0gnn04LImlv7wLFkEebxL4cmjKFzY8bMmFEdcPzNTPyp9YMOni7Rs2TIZ8LLx0F3YtGmTmHr25hwXcPzAHo+DW/rgRriOnj64KdggWD7LoIvHxkH/3RR0i1gm/Xdej9fl2ObmzZtm84zQz7eU4sWLi2D27t0r5XFcRzHaAtaD1oXjK1P3kHl0lTmOYYfC72Z0d809l7QKPNML5uaZr5CriCc8i5fWXLAweffC2bEcOZtoudnx9LF1cb6shb4xZ5noS/v6+kqvxtkcNva+ffuK392kSRPx70+cOCEzNoQDffagnGViYzNF06ZNUbduXbz66qtSTvyBbWLy5s0rs1WcKOB1WrVqJWkcq5jLY2/duHFjGfBzpskSeN6oUaNkUM7yli5dKo07rbAenJVk2Qx2aOoe8t5169ZNOiY/Pz+88cYb4gYbMfVc0upCZurfkj17/BDnD/ZGId8SCL1yHveuBMPJLQccXZzgUbCTlt5HPzJjw5kc+uaJYc9aq1Yt6W2ND5qDYPaqnElKj4B6nPql7x8YGKinxMIGOGHCBBFXRoHWgsIxjuF4H+l6vf/++3FpaSXxb8ky/Y8vw4I2IjToOzi7FUXRyqMReeckggMn4nFUGKp1OKoflXmhReC06DvvvCMNhNPBL7zwgky/2qpRZFZo3ThW6dSpE0JDQ8UqcXDPdzK2wu4EY4pobWzjkjt2AiAzQzeDDWP+/PmyT9eD4kkP65LZ4Lhm5syZWL16Ndzd3TFgwAB0795dRGQrsoxgFApboFZcKhRpQAlGobACJRiFwmKA/wcQ6w6pgI6WegAAAABJRU5ErkJggg==;" vertex="1" parent="1">
          <mxGeometry x="-340" y="510" width="233.57" height="158" as="geometry" />
        </mxCell>
        <mxCell id="GTp7Qgm1005vjMaOhcDN-13" value="" style="shape=image;verticalLabelPosition=bottom;labelBackgroundColor=default;verticalAlign=top;aspect=fixed;imageAspect=0;image=data:image/png,iVBORw0KGgoAAAANSUhEUgAAAR8AAAB4CAYAAADL0fYbAAAAAXNSR0IArs4c6QAAAARnQU1BAACxjwv8YQUAAAAJcEhZcwAADsMAAA7DAcdvqGQAACJXSURBVHhe7Z0HYBTV9sa/kJ4QQggQCJDQO4L0XlX4UwX0gaAg0gRB6kOqSFNRFFGUIiAgIiAiRXwoCqEoHYJ0REogEGpISE9g//PdncXNJrvZQHADOT/fPHbutDuze78558zkHCeDBiy4ERmD/H659TlBEISsJ5f+ryAIwr+KiI8gCA5BxEcQBIeQLWI+s/bFqMle8rjnwuAaXuhdTeJSgvC4ki3Ep+sPN9GvsjNqFXLWW4wsPZ6Mu1rvelVy1VuM3EkyYPj2ZKzo6K+3CILwuJGt3S4Kz7000gj4uDnpnzJPfHw8hg0bhj179ugtgiA4gmwjPkn3nBB/VxMHsylJm1LupW7jlKBNgiA83jy02xUZGQl3d3d4eXnpLUa424iICAQEBCBXLtsaR7crMj4F2v9SQcuHOFsYOgW9nODi7GzV7eKxd+zYgffffx+nTp1CvXr1MHnyZNy7dw+vvfYawsPD1Xr9+/fHqFGjcPToUbXurl27UK5cObVuzZo11TpcNnXqVBw6dAitWrVS+27UqBFefPFF3L17F+vXr8dHH32EW7duoUePHnjzzTfTXAtBENKB4mPJ9Vt39E+20YTHoA1Cgzbg1GcT2iA3rFmzxlClShXD5s2b9VbrdFlzw/Db6UhDdHR0qunM+XDD6XOX0rRz4jbWCAsLM3Tt2tVw7NgxgyYQhpUrVxoGDRpkiI2NNcTFxRmGDh1q2L17t1pXE0hDly5dDNu2bVPrhoSEGF566SXDzZs31TlpgmLQBEYtO3HihKFFixaGVatWqW03btxo6N69u+Hy5ctq32PHjjV8/fXXapkgCLZ5KLcrb9680AaysjImTpyI27dvK8tg7dq1GDduHLp164aGDRvqa2ceg/af0wOEd9zc3FQ/zpw5g4SEBHTu3BnTpk2Dh4eHvsY/5M+fH/Pnz1f9pIVWuXJlZcnRkuH2TloHmjRpopYFBwdDE1S1XWJiIrZs2YLevXujcOHCytpp3749Dhw4oOJKgiDY5qFjPvXr18fs2bNVAJcCtHDhQiU8dEEoTOkN+PTIFX8b5y/fTDVFRsdrU1ya9otXI/Wt0oeu3ocffqj61Lx5c/Ts2ROaNZSu+8e20NBQdOzYEaVKlULt2rXx999/q2V0q/z8/ODqmvppG6ELx+V9+vRR23Gi2NKlozAJgmCbLAk4U4A+/vhjNdjfe++9TAsPuefqBf+8uVNNXh6u8PRwS9Pu7+utb5U+ycnJ8PX1VbGaP/74Q1knjOnQMrOEMSGK54wZM5Sls3//fpQpU0YtowWUkpKihMYSipazszM0N0uJlWnSXDJlEQqCYJssER9CAfrkk08wfPjwTAuPwsUNPl7uqSZ3Nxd4aJNlu5cmSLagCNAiOXv2rHKb0rN47ty5o/6lW0Y3jf2lyFBATQHp4sWLIyYmRrlXXHbhwgUcOXJELaMwNWjQAEuXLsWVK1fU8t27d2PDhg3pipUgCKnJMvEhdevWxRtvvJF54bEChUP7f+OMGXzJ0BZ8YtW3b18MHjwYpUuXxpw5czBixAhlkXh6eqJZs2bqKRetNcZwWrRogQ4dOqBWrVrK+qGrlZSUpNYfO3YsVq5ciQoVKmD69OnKojLBGE/Lli3Vky8upxVUvXr1dMVOEITUZIs3nBeGGv+8IiZZb8iA3K7A0No+eK2qbfcrK2Bch+4VYSCZYkSxoaUnCMKDI/l8bECXa8qUKejatSuqVq2KnTt3KteSU1BQkL6WIAgPgohPBpi/gMjH8BMmTLj/AqIgCA+OiI8gCA5BIqOCIDgEER9BEByCiI8gCA5BxEcQBIfwSMSHAWtBEARbiOUjCIJDEPERBMEhPJL3fBz1ntDBWxH46eIpfe4fWhYri1r5CutzgiBkB54oy2d66Hb4efugckDR+1OQXwH02fo90iisIAgO5YkSn5ikRLQrXRnVCxW7PzUNKo0i3r4iPoKQzXii3K46P8zRrJ0i6rOHswtO3rymPt8z3IOXC7MROmFY1QZ4plAJ1f6oYFL9kSNHYsyYMSqlR3bk5s2b+Oabb9CrVy/4+PjoralhXqStW7eq5HDMeSQIWckTFnB2wukb1xAZH4/VJ0MxuHojNQ2p0QR9q9ZHlwrVMTN0p76ubZhK44cffsAzzzyjUqS2bt0amzZteiIShTE1CHMZ8Q9kKTzR0dHqL/bfeust9Rf7JkqWLKlyGi1evFjlxBaErOSJEp/8nt4YUbsZPmnRUc2bu18mF8weONAoPD///LNKEMYEY0y1ykHIQfq4Q2umQIECqFOnzn0r7eDBg0qImETNBJO5MVkaU81yEoSsxOHiwx9/XFycPvcPFABTelJ74TYXwsJw6q+/1Hz77+enmS5G204+T9gnpkMdOHCgqkzBQUgrgFUwKEjMEW2yjFj1omLFiip97NWrV/U9/AOFizmkuU9iXjHV9PmLL77Ayy+/rDIwDhkyBIcPH1YZITnPdqaDJdyGfaIQMmMij71x40Z13py2b9+uLDRaaubbmcNjhoSEoGnTpipJGrM2snoH643xeJZQkJ5++mmVSlYQshKHig8TurNwH2Mj5sndOZBYfod33cz86CkSRQKLoGTxkmq+W4UaaSZ/r4xjUSyb4+LigmLFiuktRpjBkCV4WM2CIvT9999jxYoVqvoFByjTrHJwZxbGXygALLvDc+cxRo8ejePHj6vqG7S+KHaEeaLLli2Lffv2qfUYt6GwXbp0SaWLZSL8vzTxZYrXmTNnphH2GzduqGtteW62YB6jEydOIDY2Vm8RhIfHoeLzqOt+dSpdJc3kkcuYEtUWFIP0Kl2YMK/ZVbRoURWMbdeuncp8eO7cOX0t+3nuuedU3a/cuXOr9KyMxVAcaJlUqlRJ9cXkDrGGGCumctlTTz2lclJTLO2tVUbrjMfidvbCflHEzF0yQXhYHO52cbBlRd0vwsEXfjkcZ88b3Y2/NbfDcrIHf39/m+Vv6ArSEjEvi8xqFt7e3verYjwopnzRmcXeWmXsNy1EY3J++6BrxnOmKAtCVuFw8SEUoIet+0U4oIKDglBOr7tVoXz5NJM9lSUY56D1cPHiRb3FyHfffaeEkQOYImHu0tAaooVCEXIE9tYqY78p0pzshW4drxtFWRCyimwhPoQC9FB1v3ROR15H6DVj3S26I5aTPQHsggULqgqmixYtUm4KByqDt+vWrUObNm2UG0LrglYaYy0UIz6GZzvjMebky5dPxYFY74vHZk5oxnayGntqlRFaSBTNzMSm6E7SypN3fYSsJNuID3nYul/DqjXEtgt/Yemfe9V8rDbILCd74OCl+DC+0r17d/WiIJ9K9evXD/Xq1VPrMBjOuAorW7D21969ezF+/PhUrhih+HA7ltxh4JbxLD45y2ps1Sozh7Xp2WZp1dmCAWzWJaNbKQhZxRP1hrMJ2jaFl7yLfT1HGhvMGLBpJTa2ekWfy5nwPR8+zqdQZRRjopXEWBzduPKa2yoIWUW2snyyCoZSc7u5Y9vFMzhw9eL9acWJg6o9p0ML8/p1zT0NDdVb0of3pZ9++kk9VUvvHSBBeBieWPFZ0bIbzt+8gaNXwu9P7gYnvFu7pXGlHAwfszO29vvvv9t8Osf4EQPWXbp0ydTTMUGwhyfS7RIEIfvzRFo+giBkf0R8BEFwCCI+giA4BBEfQRAcQrYUHwasBUF4shHLRxAEhyDiIwiCQ8iW7/n82+8JHbx1FVHJCfqcESftv6YBQfqcIAhZTY4Xn7VhJzHj8A7kcU39x6zRmhiNrNoIzwfJ3zMJwqMgx4vPtNBtiIcB/arV11uMzA/9A56a9TOuWhO9RRCErERiPoIgOIQcb/kM3fUTfjx/ArndUrtdMUkJeLZYGcxp2F5veTCYtIu5fJj3h6VqBEEwkuMtn7qFglA5f2F0q1A91cS2PBaCJAhC1pHjxaeApzcqFwhE14o1Uk1sy2Nn7h8aj+nVzGIlCWY8XL9+varE8cEHH6j1mUqV65gqoe7fv1+1Ey6jlWSq4cV6WswdTZiu1bxWGHM0W5bGMYdWFzMwsvSOeV0wUyJ45qmeO3euqgFmuT/2lZN5/TD2c8qUKWpdy36Hh4ffX9dymSCkh8R8NGJiYxFx9VqqiW32Yq1mVmBgoKrvxfnly5dj1KhRKic0k7wztSrXZYliJs9nfmnmzmEFCqZuZZ2sAQMGqNpdJky1wihGHNzMxbNmzRp9qXW4LvNjm+qCmWqhrV69WvWBwsk0sJcvX1ZFCE2cP38ekyZNUvmnq1atqnIAderUSc0zz/aCBQtULS/2mylkmXaW/WXmQx4vvSKKgmBCxCcLsLdmFmEOZRYIpPXCJO/M68yKFxQfbs+kXRzEXBYcHKzyQxPzWmGsospc0RQ1CkpGyeBpdfG4THDPml+m2mLMU00hZDsnJvE3rzvWrFkztR3Pr0GDBqhRo4bKP83Uq/yXFTNYy4v95jkwuT6XMfMhyzFTvATBGiI+Grm9vVEooGCqiW32Ym/NLMI2pi/lwKfbVbt2bVV5gtCtYo0sVkS1xFQrjBUquB0nigrdHQrTg0Dx+Oijj5Tbxf2xLJA1bOV6Zr82b96sRIf7oaDS1aQlJQjWEPHR4ODhHdx8Ypu92Fszi5w6dUoVSaSLRouBLlEZvc4YrYeUlJR0y/tQtCgAjN9QrEzTqlWrbBY4tAbPjzXiWYuLfea+2OcHgf1ixVa6Y+Z9o8AKgjVEfDRuR0WlqWzKNnvhQMuoZpYpVzLdMroxdMkoMrSWaL2Q4sWLqxpZdK+47MKFC2pAEwoTXZ+lS5fiypUrajnrtm/YsCFdscoIbsN4DUWTlhbjMzt37tSXZo4SJUqofjMmRVGj6DIeFBERoa8hCGkR8dHwz5cvTWVTttkLn/BYq5nFZO2MnTDYzMAyYzgtWrRAhw4dUKtWLWX90NWitcX1+U7QypUrVZ2s6dOnK3EwwRgPn569+OKLajmtILpM6YldRlBwaKGxOgULHY4ePVrVnWf8KDNWH6H1xMD0r7/+qp6EtW3bVrUx7iMI1sjxLxn+FnEOWyMuZJs/r+DAN8VXTC8oUmwYDLYGH4nPmzdPnzNSpEgRVXGVYigI2ZEcLz4hEecx/fAO1CxUTG8xEhJ2BiOqNvxX/7CUrgvfo+F7Pny0TTeIj6w5BQXJX9gLTxY5XnzIurBTOHYr9TsplfIFoEPQv18ojy8ZMvC7a9cu9dRowoQJqFmzpr5UEJ4cRHwEQXAIEnAWBMEhiPgIguAQnI5HpqRxuwRBEB41YvkIguAQ0hWfAgbbf6iYEQ+7vSAITz5i+QiC4BBEfARBcAgiPoIgOAQRH0EQHIKIjyAIDuGJEB9DciIStq/V5zIm8fAO4G6KPvfkcPP6VUTfjtTnHh1Rt25i+fzPEBtjzFGUHhfP/401Xy9EclKS3iIIqXkixCdm2fuInvkmEvds0luskxS6HVHvdMft93rrLelz7+5dbNm4Fv07tUTbGmUxqEtb/P7bzw+UuMteEhPiMWPcCBw5sFdvsZ+7KSn47qv52PrTOr3FOg9zHG779ZxPUKlaTXjn9kFKcjLO/XVKidGUYa/fF7+iwSWRxzcv1n+7ROW3FgRLngjxcfYPpFogasZAJO7/TW9NS9KBLbg9uQcMKUlwKWo9zw0HC4Xnjy2/YNqcxdiw/xRGT/9UDaTQPb/ra2UvnF1c8PqoCejQ7VW95dGwb0cI/PwLoEqN2mp+5cI5WLd8sRKiBE2YTDCjY73mz+H8mdNqEgRLHC4+vFMmxKetPUUBuHHVmC40IwyaC8V7q0HbT9R7fZB0aJtxgRm0iiLf7625aAnGBhc347/pwD5t+/lHdHltAPIHFFYDqWjxknimXSclSLzbmyyjV1s3Qad6VTBj/Ejl9pCL585g4uDe2LBiqVretVktNUC5Dc/rwB87lCVFi2rs6z1w6fxZtc2AF1ojZNMGjOn3MhZ/NkO1je3/ChZ9Mh19n39Wzd+Juo35M6apY5rvl3CbzetW3/+8YsHn+GDMMHSoU9Hmcaz1yRJaPft/34aaDZogl57wrPvrb2LoxPdQvV5DuLqmvqYUpPJPVdMEy1iqRxDMcaj4cCBNHT4An04epz6b4GCg+8BBsm/HVr3VBozfaJYPnLRtk+Jxe0oPJB35Q18IJOzcgKgPXtc+mN2ZXdJWiDARffsWnJ1dEFCkqN5i5NkOL2DQuClwcXVVIvTrhjWYvuAbrNx2QA2yr2Z9qAYoCQ+7AKdcufDl2s14d+5SJWbhYedw9fIlzT2ai+GTP8T6fSfRtFU7LJs7CwUKBWLO6p/U/Hvzl+HVwSPVfq5FXEHBwoGY8dVKFC4ShFWL5sLTy1sdc/aK9di1dTOOhR5Q61pyUBOUlwcMweodoShXqSq2/LhWE9FSaY5jrU+WN4XImzfU91TI4rrYonT5yjh7+iTi4+yvgybkDBwqPj6+ebU75xAc3L0Tc96fpH7YJuGZPXUC/u+Fl1CtbgN9bRukJOsfdDRL5V6UsSonyeXrT0XT53RsiM/tW7dwJzpt5QkTSUmJ2KuJYseXX0NAYFG4urmhScu2iI+NQfgFY62qosEl0Pi5NmpZkeDiCCwarPbLeZ5jmGaBJCUmKGtqsCZobu7pl2YuEhSMRs+2hq9fPjhrote1z0C81PcNtR//goVQtnJVRFwK09dODcUyMKi4Wrd6/Ua4diVcHdMSe/t06/o1eHh6wd3TU2/JGK/c3kiIi5PAs5AGh7tdVWvXw5jpn6rgJwXoh2WLlPC07fqKMundrQxKcwzm4uPhCd9Rc+HRsJ3eALhVqY+8E5bCyU0bNNSgXJrLoFk21sibLx988lgvR2PQXEG6OhyIJtzc3ZVFYusJEPEvEIBhk6bjqHa+fTs8i/Fv9MKVSxetJoF3csqlLCjjZye1/4/fHqXcrnY1y2HN0gVq2cNgb5+YX5p94GQveXz9NGG7h6jIf24GgkAcLj6EAjRy6gwlQIxvZEZ4FCnGu6qTqwf8Ri+Ee51Wat4ct6ebwHfMAjhpgsGh42RDfLxy+ygL4Gr4Jb3FCOMps6dNUIOQMQ9ztyQpMRHRmuXmlkF9d8aLfPL44o2xk7Fk0w5lPS2aNT2V22kNHm/RrA9Qu3EzrN4Zih8PnMYLr/bTlz449vaJie1pIXGyl+ioSCWgvn6a9SkIZmQL8SEUoP+++zFeGTg0c8KjkXLpDJxc3JD37aVwq9Fcb02Le80W8B35hbJ87t60Xk0zX/6CaN7meaz95isVROZgYwB26//WKxfIyzs3ajdqpqw0xktoBfExvFfu3AgubSwAaI2L2n4mDemHSxes1/iKs2I98XF6Ynw8vH3yKAOOfTp+aL9x4QNgOo49fSL5ChRUAsg+2EtcTCw8vLyUaycI5mQb8SFP1ayDLr0HZkp4SN4xC+H7zjdwq9ZYb7EOraI8wz5F7pdH6y1p4QCk+NRo0Bhj+/dQ7s2M8SPQuUdfPFWrrlqnfvPnVGzkrT7d8ULDajh6cB/6jhibyhVLj+Kly6JTjz6Y/tYQtV8GkHu8MVzFv9w1l7Fmo6aY+c5ofP3FJ/oW/0DRebFXfyz5bAY61a+C1Uu+RGBwiUwHcy2PY6tP5vj551dtERYWoS3Czv6FkmXLK5dUEMxJN5Mh8/Fcd7I/qGjJw24vZF/27QzB6aN/qqC36XG7NWglMY73vObGlSjz71cCEbI32cryEbI/tE4jb17HyaOH9Zb0oau6c/P/UKZSFWVZCYIlIj5CpqDL9sqAoepNb1tP9hg/YgC+5fP/ydTTMSHnIG6XIAgOQSwfQRAcgoiPIAgOwen6rTv2vzEmCIKQRYjlIwiCQxDxEQTBIYj4CILgEER8BEFwCCI+6ZCScA13Lq1F7NXfkJL06BOyC0JORJ52WRB5agaS7hyEq+tdGJyYbsIFbr5N4Ve6r76GIAhZgYiPGRQeQ9IBFK5SEc5uxr+sT4iOwtXjp+HiowlQmYGqTRCEh0fcLp2UxBtIvrMHhStXxL2UREQcO4vrJ/6Gq7sX8pcO0pbtw7279uexETLHwQP78fb4MakqYAjpw6IKF8PCHvvUtCI+OvE3dsLZxRnO7h64efYq7ro2QkJcIURfCYd3/gDNRoxBSvxFfW374WDioOLgErI3j4sAXr9+DVOnTMTZs3/rLY8nIj46zq5+msAYPxtyJeFe4nXN0olDLj0BnxOccTfZdn5mQfg3CAgohHlffoVy5SvoLY8nIj46uVy8kZKUgrtJifAvHgQP95PwDUiAb2BxRF86rwmRDzz9auhrp4a5a3bv+h3dur6AOjWr4o0BfXHhwnmcO3cWXV/shJ83/YQB/Xvj88+M2QlPnjiu1uG63OZw6CHVTrisf99eaFC3BsaPfQvjxozChvXGUtDMHf3Txg1o36YlGtWvjc9mzUS8jZSmJqvru1Ur1PFM+4y8dUstT0xMwJLFi/Bs80Zp9se+cho9aoTajtuznx9/9IFa17LfV65cvr+u5TJzeF2GDBpwf71DBw/czwnNqiDLl32t+sNz/HXzz/eXWbtmpnOcO2c2Ondsq65VVFTU/X5yXyuWL1PXjvDfld9+g9YtW6jls2Z+hNjYWHWu/I74XfE743dn63pz/RkfvKe+K9P3StjfrxZ+qY5h4sifh9V157bW+mZ5Hmu+/07Nb/lts74XqH3O+fxT3I6MxLAhg1Qf7fmOFy9aoI7H85j96UwMGTwQUbczzhn+qBHx0UiMOobrf46Bf8nCcHZzh5OTCwqULYm8wcUQFX4eN85HwLtwe33ttFy5fBmLv1qIdyZNxa69h9CyVWvMm/M5ChUqjBXfrVHzc+YtxBuDhyqTeebHH+KVHq+qdQe/OVT94PiD4g/zi9mfovML/8GOP/bh1V69cfrUSf0oQMjW37Dxx/X4ctES/PLbNsTE3FHzGcGBOmXa+9o2241JvnZuV+0b1q/DOc10X7thEzZt3oqIiCtqwJu4eDEMo0aPRcj2XahUqTImThiLNm3aIWTHLvTrPxDfLFuCuLg41e/3352K+g0aYvvvezHyv6Mxf94X6lzN4YCYNXMGOnZ+Ua3H68X1LoeHq+UH9u9DyVKltb6EYMy4Cfh+9So1SGxdMxOXLl7EZ7PnoXmLZ9Rg8/LywpaQnVj27XcICdlyX6woLkePHtHaV+HXrdvh7uGOVSuWY+CgIeo74nfF76xEiZIZXu9T2nczavQ49Or9TxJ/5i6qVacuDh8OVdeG8LyqPV0dbm5uNvtGTOfRuk1bNGrcBHt270JycrISLu6zTt366eZHsvYdb98WorZbs+5HfP/DBlVzLuZOtFrmaHK8+CRFn8L1wyNQqFI55CkchGunjuPCvsMI27UPF/YcwO2L8fAO7IncRf4pxWOJq5ur+sJ5J0pMTESbtu21wfM23N3TVrLIl88fMz7+FLXr1FOJ2suXr6gqXkTejsR5bXv+sOrVb6iWFS1WDBUqVlLb0SrYuWM7unXvocxuT09PNVD+1H5YGcUoOmmDncf19vZG3Xr1EabXFmutCcnoseNVO6datevcX0YaNGystmPy91q16+KpqtUQXLy4qmLBf5OTU1TQk/12d3fDM8+2VMsqVqoEf//8KihqTljYBe04ubUBVE+tV6p0Gbw5ZLg6NuF5161nXFaxYmV4eHiq62Lrmpno8HwnBBYpog1sb7zWpx969+mv+l2wYIAmnFUQHn5JXcN9e/egfYeOap/MFd61a3d1TSwr49pzvfk9l9LEkmJiTsmSpdQ5XNLE+86dOzhx4hiqVXta9d1a30yYzoPnzmsQERGB29p58sbA43Lf6ZHed8xz+OP3nWjXvgMKFCiojllb+x6zCzlafJJizmjCMwwB5UrBt0gwrp08jtib2o+i2pfIU2YKfIJHokD1RfApat3qIfxiJ74zVQUsOz/fFm8Oeh3hVmpxse3Y0T/Rq2d35UK0eq4ZLpw/p5bR/PbNmxeurmnL+nBwcPnwoYPUdpzoJtDdSUx8sKcevKPO+WK2Mv+5v/emTdaXpIWDyRrs17aQrWjWuJ7aT5OGdZWFwQFjztWrEUpcTTdu7pPimtfPz9hgBVvXzISpf9w/LZRJE8crV6NurWpY9vVitSw+PkH1yfxceGz2wfL87Lne1q4JxaiqJjZ/au7Wlcvh8PXNq24ktvpmwnyfBQsW1H5bBTTr95SyUMuUKat+H/ZiOoe8eW1fX0eRY8UnKeYcrh8aprlXwfAtVly1xWlugWdAS7h4+MMtTzl45Kup2jOCg9gnTx7NipiAH/+3Wd0tP9N8a7ojlvx95i8sXDAfEzWXY/e+UPzy6zaU0O9mLDyYkpKi/WjSvnrFAcgf5uwv5mPP/sP3py8XLtF+3L76WvbDHyVdAD+/fKrP3Nf4tyfpSzMH+/Vcy//T3LHdqfpGy8ocWhC0ELX/KfiZlgGvny1sXTNL6J4wNtOwUWPlHrIfPXr2Uss8PT2UK8xzN8Fjsw/sizkPe71p6Rw/dhQ7tm9TFiUtGVt9Sw9aKnRlt2muGS0Yay6XNVjymxabKU6V3ciR4pMcG4YboUORv3QR5C1WEimaOXtmyy9w83JF1Nl5+lr2w7sw75AMpvLHkStX2h9ITEyM+jdBc8vo+3toJj/vTAcP7keEdjclxYoFqeDnzh3b1DL6/yeOH1PL6GbwR/zdqm+VBcHljCX88vP/1OfMwm3i4mKRRxNNFxdXFVdhfOFBCAoK1vodg61bflUDm6LLeNC1a1f1NYyY1gs9dEAdn6IyauTQVG5Heti6ZpZQvOme+PjkUfP8TkL1mIrpGjKIzD7SZVy4YJ6K+ZiuIftHd/JhrzctHV4LxtDoPhFbfbNGlaeq4vTpU2pday6XNVxdXTVXtS7WfL9Kfb883717d+tLHU+OFJ+Yc3ORp2g++AWXQmLULfVuT0piAu45N9SWOuNeyj+VSO2BsYuXX3kVY0f/V5nSDD6/PnCwukPyjtegYSNMmTRBBUkrVKiIRo2aoOcrXdHq2aaaOX1WmdL8YXD9IcNGYN3aNZpZXkuznj5R4mCCMYemzVqg72s91XI+4eCPMz33LiP4w+z2cg/89usvqF+nOqZOfgeBgYGIT0hIZRnYg1++fPjvW2NVcLNxg9p4pdt/lEXFuI85XG/IsJFYsfwb1f8pkyfi9QGDULx4CX2N9LF1zSzx8fFBz1d74/PZs1Rfli5ZhKDgYMRpok54DcuXr4CX/tMJrVu1UPvgdaCVwyAzbx48DuNTD3O9+b3TwmGcrGBAgGrLqG/pwThO5SpPoXr1GplyuUw0btwUNWvVRrcundG5YztNtFO7wo4kx/15hUETlhtHB6NI5ZK4GXYGkRfCNIvHE64ernDJ8zx8S/TU13QMHPgmv593yXenTka79s+ru7A1+Kh36ZKv9DkjhQsHYuann6sBJTy+8Pcw65OP0LRpc1SvYV8YwByjm2u4L5iMS/IpIl1sumSOJMdZPk4uXvAu1BnhR8KQnBiEIg1/gG/J0Ui446S5XKkH8L8NXa53p03CkSN/KtM+9NBB9cQkMLCIvkb68BG+eVyC09oN/xPhecyhaJz56zSuXb2qrOsHgTEn3pwY9+Hva/26H1C2XHnNMstcVeBHgfxhqRkpsWFw8Q7S5xwDX6ZjsHr/vr0or7kbw0eMUk9OhJwH3fTNv2zC2xOnPPBvgC8Zrvh2OZYtNd5Y+ZpBn34DHG71EBEfQRAcQo4MOAuC4HhEfARBcAgiPoIgOAQRH0EQHIKIjyAIDgD4f8RCCaCpTdm7AAAAAElFTkSuQmCC;" vertex="1" parent="1">
          <mxGeometry x="470" y="150" width="263.08" height="110" as="geometry" />
        </mxCell>
        <mxCell id="GTp7Qgm1005vjMaOhcDN-14" value="" style="shape=image;verticalLabelPosition=bottom;labelBackgroundColor=default;verticalAlign=top;aspect=fixed;imageAspect=0;image=data:image/png,iVBORw0KGgoAAAANSUhEUgAAARcAAACoCAYAAADKOKrAAAAAAXNSR0IArs4c6QAAAARnQU1BAACxjwv8YQUAAAAJcEhZcwAADsMAAA7DAcdvqGQAACNHSURBVHhe7Z0HXBTn1saPIl1EsKCiiFixxN41lhi9MSZGjZ81GpPYa6KJ3Wgskeg1xqvXGo0lRk00iSneJPbeu9gLiAqiIIoiIOw3z2EWl4VdFmFgWc8/v7l3552Z3XeR99lzziznyRMe8UhHgiAIWUxe9f8FQRCyFBEXQRA0QcRFEARNEHERBEETNC3oLjsbR0vOxKl76ePmkIc+qmJP3So5qCOCIORWNBWXgdtiaGB1e6pbzE4dSWJVYDwlKK/aRxESQx7F6Wj4jlha+JqzOpKzJCYm0q2QECpWrBjZO4jgCUJGyJG0KEGno8Q0JA2RixY8fRpDkyaMpePHjqojaWN8Xnj4XZo29XO6du0q7wuCYDmai0tcYh6KSaAUW7wy9iwx5Ri2p8pmTXh5FaPFS1dQxUr+6oggCJZiMi2KevCAHBwdydk5ZYqiU6KOu3fDqEiRopQ3r3ltQlr0MC6RYp6pAypIiYCdUaBS1CUP4T9TaRFe+9DB/TTvm6/p6pXLVKduPfpszHgqXdqXj184H0j/mfc1HT1yOPkYUpuPhw2mO3du8zm9evehwUNH8GNDrl+/luq8nu+9T5M/n0DDRnxCxYsXpxnTviA/v7J05MghOnniOLVo2Yq69XiPVq9cQXt276QaNWulOx/9MUGwddJUh6ioKBo1cjhNnzqZH+vB4t7y5+/UtXMH2rtntzpqntF1HemPDi4ptlXNE+i7Zs9Sja9oY77Wcuf2bfpuxbc0eco0OnD4BLX5V1tavHABxcTEcG3kq5nT6b1e79P+Q8ep/Tsd+VixYsVp3Y+b+NyFi79NU1hAmTJ+Fp0XERlBs+fMo7+37eafx9w5s2jY8E9o977D1KTpq/TjhnWUkJBgcj6YqyC8DKQpLu7u7tSv/yCOEmYFzGCB0QvLl9OnUsdOnal+gwbq2RlHp/yX5wXKK/YO9jwPRBmxsbH0Zru3aez4SeSoRFinTp2gylWrUd16DcjOzo7q12/ICzk09I56ddbQvHlLjuZcXV2V16pPNWrUpBLe3vyaFSv600PlZxUfH5dt8xEEa8VkXoOFM2PmbC5uQmDWfr+KheX/unSlfgMGKQvaST3TPHljHtCN2/dTbJEPY5TtSarxm2GR6lVpg1Ts88nTeE6d3mlHw4YMUCKEm5yeIVr4cf0P1Kh+Lapfpzq1btWMDh86wItdKyAapsiJ+QiCNWG2aAKBmTJ1Bi/meXPnZFhYQKK9CxUqmD/F5uJkT85ODqnGC7m7qlelTXx8PLkVKEBjxk2k37f8Q9179OKaBiIrLHTUSA4eOUmHjp7ibd/BY1RdiSxyAmubjyBkN+YrsgoQmKnTZ9KAgUMyLCxMPgdyc3FMsTk65CMnZTMed1EExxxBN67TJyOGUFDQDSWtyqNELM9zq8pVqnIqcuzoES7ihoWF0prVKyk6Olo9g1I8Noel55nDkvkIgi2TrriA2nXqUp8P+2ZcWEwAYVD+N2nHAHyJzhxly5XnaGDcmE+pQd0aXNwdMGgo14h8fcvQqE/H0IrlS6lhvZr08fAhVK5cOa6NODk5U+MmTWnqlIm0aOF89dlSY+l5lmBuPoLwMqDpN3R/uBBHS8/GUXS8OpAO+e2J+lZzoG4Vtfs2LG6xI/o5e/aMOpIE7hKNmzCJBUYQhMwjzaIEQdAEi9IiQRCEjCLiIgiCJoi4CIKgCSIugiBoQp7AyGdS0BUEIcvoOTrpaxwSuQiCoAkZEpciOvmLXkEQLEMiF0EQNEHERRAETchQQRdpUXie7P96/LXou7Q/7JK695zGxctTGRcvdU8QBGsgVxV0v7u4h0q4u1Fd75LJW8UiRWjsgU0v1HRKEATtyRXiEh0XS2+Vq0q1ipVK3pr7lCNvV3f1DEEQrI1ckRb13rGUqnmV4MdOdvnowv27/DhRl6jsJ3kf9fFvTNXcS/NjrXj4IJLmTPqMPvx4NJUqU04dtS6iIu7THz+tpfbd3yfX/G7qaEpu3rhKR/bspLe6vCd+TEKWk7u+56LI36V7dykyJoZ+unCShtZqytvw2s2of41G1K1ybVoRuE892TyJCQm0/Y9fqH/HNtSudgUa0qUd7dv2Fzd0yu3EPo2h1QvnUpUadVhYrpw/R+MG9Ep+n8f27+EexCVL+1EB94K0+YeVvC8IWpArxKWQsyuNrNeC5r7WgfcN0yN9imQJWEgQlv3b/6bpC7+j345epDEB83iRnTxkmThZM4hGPAoVoWq161HY7RBa/k0A9Rw4gjYfuUAfT/mK1i9bQGG3bnKzroYtW9ONK5d4EwQt0ExckEI8jXmi7j0HC/xe2J0MRQo6Jf0JCg6mi5cv8/7bG5ek2kIemW/uDTCnXX/9Tl0+GEiFvYrzIivp60et3urIgvMsPj45snm/bTPq2LAazZ4wiu6Hh6nP8Jyb16/Q5GF9+TkBoobZ40fSmWOHkx9vWL6QI4f29SvTV2M/pktnT9OXnw3lfYyH3LjG1+KaGZ8OoXXK4u/aoi6/9p6//+SfFTZEHIg8EIEYXmcIXvPovl1Up3EzymtnR/FxcdTyzXeoQuVq3MC8pG8ZKlrcm8LDQvl8RDaVXqmhCNJ23heErEYTcXkU9YCmfTKQ5n0xnh/rwULZ8eevNPDdtsov9Q511DJKlChOZVRDse7+tVNtns75+Zg5Hj6IIDu7fOTlXVIdSeL19u/SkPFTKZ+9PYvM1t82UcCy72n9rmO8AFd8M4sXb0Z5EBFBk75eRD9sP8x2KsvmzKA+wz+jn/efoXpNW9DvG75nMQOnjx6i0mUr0PdbD9LQCVPpz5/WsnAhAvlxxSL65ItZHIE0/9dbtGbRN6mEO/L+Pf5ZF1Pfm1408Z4g5EiRYHniU6YsHwflKlWla5cuUMyTx+qIIGQdmoiLm5LP9xgwnI4f3EsLZ07hX3q9sMyfNpHeeLcb1WjQWD0743QsVy3V5mzG5kMPFvujh8/Fzpi4uFg6rIheh54fkFeJklzsbNamHcU8jqZbQTfUsyynYYvXycnZhVxc81P1ug2pcs06yuIvxZFF2UpVKFr5uWDBgzqNXqVaDZuwa0B5JdpwdHJmMcQc8LMLViKluNinLBhDFSF0MOpnHBF+l1/L0cgh859ff6K361biyKldl/fI3bOQeoTIJb8rPX3yhKMcQchqNEuLqtdrSGMD5nHID4H5ec1yFpZ2Xd9ThGdYhpt93759h66rC/zqtWupNkso6OlJbgUKqnup0Smf8IgksEj1sKWtiys9jn6kjrwY5jyOzFGoiBd9PCWAzio/x77tX6cJg/vQHdWryRD4JCHNS2p+/hxEZagtff7NElox7yu6fvmieoSogLuHIlyJFBV5Xx0RhKxDM3EBEJhR02azwCyfG/DCwpInT14q7eNDFcuX533/SpVSbTgnPVzyu/Gnf9itEHUkCXy6z58+kRcoogrDlCMuNpYeKhGGg4OjOpK9oA7kVsCdBo/7glb+bw9HVSjUGqabAOKlr9EA1GWQ3uF6CI5v+YpUuXptuhL4vDH5w6hI/rm5ezyPZgQhq9BUXAAE5tMZc+i9QSNeSFj0XIoMp5N3b/HjCCW9Md7wCZwenoWLcpHzl+9XcJEWCxGLcMeWzdT09bacvqAWgigLtQ5EMbhN7ZI/P5UulyRsegoU9OQ6zOXAs8k1jcBTx9WjWcdNZX5ThvejkKBrLBKmzP89ixRlUYxVvahhIIe6zZUL5/h93rkZRFeVx77lK/Fx8CT6MTm5uMh3XQRN0FxcwCt16lOXD1/AUE2lT+XGtOPGZfru9GHef/zkSarNErA4IS61G79K4/r3orfqVKTZE0ZSp1596ZW6Sd7XjVq25rrG6I960LtNatDZ40eo78hxKVIl4O7hSZ1696X/TJtA7zauzvUk3JHJanzLVaCOvT6igNHDeb4bli+iXoM/4bqWIR6FCvNYqBqV4boPho+mRQFT+DrcpXr3/f5Uzr8KHwfB1y6TX4VKnPYJQlaTK76hqwflhGa/BNCR3qPUkef037Ke5jTsru69nBzZu5Nvd3frO5jTO3MgykEt7B0lzSqjpEyCkFXkrm/oGpDfwZF23bxCx8JuJm/rzh/n8ZcdRIiR98PpwtlT6kjaIE3a+88WKl+lGkc4gqAFuUpcUKv8T7NudP5uOB0JCUneEuKJhlZrpZ718oLb1+8NHMHfNjZ3dwv1GxSp27zzf5wqCoIW5Kq0SBAE6yfXpkWCIOQORFwEQdAEERdBEDRBxEUQBE3IVnER3yNBeHnIo9P/MYoF3IuMpsIe6bc2MEVmrxcEIfcgaZEgCJpg05HL8Ygwiop/qu4lkUf5r7mXj7onCIJW2Ky4/BJ8gWaf2kMF7FP+seRDRWxGVW9K7/g8/+tgQRCyHpsVl+knd1EM6ahfjUbqSBJLTu4nZyV6GV+jmToiCIIWSM0llxIWFkaRkWk3Jf/xxx/pq6++UvcEIWewWXEJj3lM684fo7c3Lk2xYSwkOko968WJiYmhjz/+mA4dOqSOZB/Pnj2jRYsW0S+//KKOCIL1YbPi0qCYD1UtXJy6+9dKsWGsgMOLNa2yFvLly0eff/459enTRx0RBOvDZsWliLMrVS1SgrpWrp1iw1gBC3u/oBy1e/duatu2LZUtW5Z69uxJ165doytXrlCbNm1o8+bN1L179+QU5OzZs3wOzsU1R48e5XGAY127dqWKFSvS8OHDadiwYZy+APTu/fnnn6lJkyZUuXJlmjlzJj1Jp7seXlN//YMHD2j06NH83Hh9w9cVhJzCpmsu0Y8fU2jY3RQbxiwlJCSEFi5cSLNnz6bLly/T22+/TV9//TWVKFGC/vrrL95fu3YtffbZZ1wDmTZtGvXr14/PxWKfM2cO9/fF4p81axb16NGDzp8/TwMHDqTAwED1VYifa+PGjSwWEIZHjx7Rpk2b1KPmgTAtX76c8ufPTydOnKD58+dz2iQIOY0UdM3goHoGIVJ5+vQpderUiaZPn05OTqnTqsKFC9OSJUs4+kAT7apVq5KjoyOLC65HU6ZmzZrxsdKlS1O1atX4utjYWNq+fTt9+OGHVLx4cXJxcWHROnbsGNd10gNCdObMGZ4bri1YsCA1aJDUD1gQchKbFpf8rq5UzKtoig1jluLl5cURB4q2LVu2pN69e1NwcHCaHfgxdvLkSerQoQOnRfXq1aOrV6/yMUQXHh4eZG9vz/uGwDkAxz/66CO+DhtSrVu3brHwpAfED68NIRQEa8KmxQWLNi4uLsWGMUuBPYe7uzunO/v37+foAvUQpDnGXLx4kVMSpFCIVJDelFd9lhDBIFVJyx8bwgDPodWrV7MY6bcNGzZwFJIeiIjwvHhvgmBN2LS4PIiKSuXMiDFLwSJHRIEirinPIKQlAGkTogekTFjsiHYQfQBfX1+Kjo7m9AfHgoKCOJUBEJ7GjRvTqlWr6M6dJIP+gwcP0m+//ZamGBnj5ubGKRZqNigCQ/hwvSDkNDYtLoU8PVM5M2LMUnD3pW/fvjR06FAqV64cF3dHjhzJEYWzszO1aNGCi7ko3GKBv/baa9S+fXuqW7cuRy9IhRBR4Pxx48bR+vXryd/fnwICAjgi0oMaC+4+de7cmY8jiqlVq1aaYmYMop4PPviAI7KaNWty6ubn56ceFYScw2a//r8t9DrtCA2ymq//Y/Hr/aJRqIXYQEwaNUo5P0Nwu3nx4sXqXhLe3t58dwhiJwjWjM2Ky87QGxRwag/VKVZKHUliZ/AVGlm9Sbb+4SJSoqlTp/L3XKpXr0579+6luXPn8ubjI3+hLdgmNt1y4dfgi3QuIkzdS6KKpxe198l+h0F8iQ7F4AMHDvBt6okTJ1KdOnXUo4Jge9i0uAiCkHPYdEFXEIScQ8RFEARNEHERBEETRFwEQdAEERdBEDRBxEUQBE0QcREEQRNs+nsu4lskCDmHzYqL+BYJQs5is+IivkWCkLNIzSUXYs6zSBCsBZsVF2v3LcrI9Yad/sWzSMgt2Ky42KpvkXgWCbkG1FwsJTzikfroxcjs9Rlh651ruvEnduiCdLEpNoxNO7FTPcs8iYmJul27duneeOMNnZ+fn65Hjx66q1ev6i5fvqxr2rQpj2ELCAjg88+cOcPnYAzXHDlyhMdxfvfu3XUzZszQtWjRQrdt27Y0rzcmIiJC17Fjx+TzRowYoXvy5Amfv2HDBn6MsQULFvDrVqhQQTds2DDdyZMndYMGDeJ9/Zz1GM7R+JggZCU2LS7D9/6uOxR6M8WGMUvFJTg4WNe1a1fduXPndAkJCbr169frhgwZonv8+HHywj548CCfGxoaquvSpQuLEc7duXOnrlu3brr79++zuDRv3ly3cuVK3ldSm1TXm0MvJnqMxeWLL77gOT169Eg3dOhQXefOnXnueJ1vv/1WN3nyZH4cFBSk69ChA88R+5s3b05+P4KQ1UhB1wxZ5VsE0KT7zTffJE9Pz+R2l1lF69at2bMIxmhom4kmVKVKleLXqVKlCjftRi9feCGhEx4aguMY5qoIFN2+fVt9JkHIOmxaXKzFtwjguCUNtzOLOeFCMRguA0q6xHOECKHlZlpWKYKQWWxaXNAUW+9XpN8wZilZ5VtkLaAYDDcDzA/Chw3zlnabghbYtLhYi2+ROfTXpwfOQ4qWGV555RVOjeBrhDnCJ2np0qUWz0EQMoJNi4u1+BalhfH15sB5sBP59NNPLbJ4NQVSIdzGXrBgAUdViMTwHlGrEYSsxma//m9tvkXmwLdtESGhZmMIzNJmzJjBQiQIuQ2bFRdr8i0ShJcRm265YE2+RYLwsmHT4iIIQs5h0wVdQRByDhEXQRA0QcRFEARNEHERBEETRFwEQdAEERdBEDRBxEUQBE2w6e+5iG+RIOQcNisu4lskCDmLzYqL+BYJQs4iNZds4EVtSPDX0vAoEoTciM2Ki9a+RVoA8YEIQYwAvIngUYT2lIKQ27BZcbEF3yJ4E6G5E9pTCkJuw2bFpYizK1UtUoK6Vq6dYsNYAQdH9az0QavKwYMHc8e2tm3bcm9cgE5zWPwrV67kLvq1atWiFStWJPfoPX36NHelq1y5Mk2ZMoVbSpoDrordu3enzZs3U5s2bfj54bKIcYCoBg2l/v3vf/Nr4TV//fVX2rhxY5qvj7abiHowbnxMELIDm665RD9+TKFhd1NsGLMUNOKeMGECNWvWjAIDAzmKmDt3bnId5MaNG9xXd/v27bRmzRr67bff6Pr16xQeHs4iMHDgQDpz5gz16tWL7t27x9eYAu0u165dy93n/vrrL26racylS5eoefPmLHCwOJk4cSK3vdy1axenUH///Tc33EaN/rvvvqPLly/T7t27acuWLdxgfN++feozCYL2SEHXDIge4D0EvyFYdqDBdZEiRVhUgJ+fH7Vr144bc5cpU4ZKly5N9+/fp6CgIG5N2bRpU74Ox9BjN7PUrl2bIyEIGnyRsA8LE7wG5lWsWDFuth0VFcWRDnrkoj8uLFLgbYTG3IKQXdi0uGTWtwhpxD///MOigubWWNBIW9IzEcN1EBctfYrw3KaeH5HLw4cP6a233uJ5YxszZgzdvXs3Uw2+BSEj2LS4YJFnxrcIEQEWKFIbvc8PNhifmQPX4Y4P7DtyAtigwNnxf//7X4p5w1MJkZggZAc2LS6Z9S1COhMdHc01EIgSajDLli2j0NBQ9Yy0QXoEcdmzZw9fhzoMBMoS8HowY8sMbm5uHG2hhoM5Yw5//PEH110EIbuwaXHJrG9RoUKF+E7P1q1budaB+grGUN8wB47DYwhFVVyHO0pY7OmBIi6iDtxlgiC9KIic4LeEWgtsaFHvOX78OM9FELILm/36v7X6FuH2MuofxiDKqF+/vronCLkfmxUX8S0ShJzFZsUFiG+RIOQcNi0ugiDkHDZd0BUEIecQcREEQRNEXARB0AQRF0EQNCFbxUWKuYLw8iCRiyAImiDiIgiCJoi4CIKgCSIugiBogoiLIAiaYNXikhgXS2Hbflb30ify2G7SJdieDQd69sLDSGvQonPevHncKtMUaDqFnjZovCUI5rBqcbm+bAZdmDaE7u3doo6YJvLoLjrzaTc6N6GPOpI2aJz0888/U6tWrbj9Izr6o2Obll3jXtQUDcCzCF380YA7PTLzOrh2zpw5VKdOHW42hYZVFy5cYLHp169fsrihb3DBggW5V00G/ixNeAmxanFxLOKthC8JdP6LAXT/wFZ1NDURB7fRmdE9KTE+jpx9UnfN14PFAGFBZ7nVq1dzA+758+fzQtm7d696lnUBzyK4DsDGREt27NjBTa70PWUWLFjAdiQQGgiPHjSzgvUJXAawCYIpNBMXfNI9efJE3XsOFjg8fCyJFPQpToLyPIETP6DIIzt53xBENWcn9lFSqKe8n9fedI9YzAn2H4MGDaLixYvzQsEncadOnVhw8Gmtj2zgBYTObZ988kmylYg5ryK8L9h4IBJCRNSzZ0+6du0aX4PFiMbe8CWCDxHGevToQV9++SV3isM+2lFOnTqVX9PYZwjXoMmU/jEEcfjw4eylZO51TM3JGIjHzp072bYEXezAiBEjKCAggB0M4G5gCASnZs2abKkiCKbQRFywUPr3709jx47lx3rwy47wHovAkl9MFhedIkJ5FIGJjaEzY3rSgxPPvXfu7thM5yf3o8Snzz9Z89rbq49SExERwZFAqVIpG0h17tyZfYDslWshMjAaW7duHZ08eZIXERaZ/tPblFdRSEgILVy4kJtgwy8I/kNff/01lShRgp8T++g2B38iAAcBb29v+umnn8jHx4f++9//kqurK78m+t3Cg0hvwGYMBAPpD/ryVq9enTZt2sTiYfw6puZkLPrwVMK/k/HPxRxwQjh//jw9zoAPlPByoYm4ICfHJx8aVCOkxy+uXljGjx/Pn6z45E8P3bN4vk4PIo24B/fVPSKHgoVSHc+Tz7S4oGBpKHbGwHYDogG/n5IlS/InNrr/o2m2vqetKa8i7GMuiCDgdohoCILl5JS2dayvry/7IaFLP0RtyJAhNHToUH4e+A9BNIKDg9WzUwIxxPU499VXX2VXSLymMZbOCZGZi4sL26FYCvyQIFJS2BVMoVla1KhRIw7fUVyEwHz77bcsLHAfhPCYWnSGJBp0wc/r5Ez+k5dQ0RZvqyOKiNVsTNVmriE7R2VRQGPy5KU8dqZ9ldFcG8JnCqRqSEWw0PTAigMRhbk7KADNsGfNmsXvF6lO7969WRxMeQsZ+g5BFPH8o0aN4rQIjbqXLl3KxzKDpXPCe2ZhVjZL8fDw4J8XhFUQ0kIzcQEQGNyBwC836gsZERaQGJ9k4JXXwYmqTl1BhZu8wfuGeNRtTpWnLic7VRDMiQtqBfgEv3nzpjqSBOoZED4sMtQcDNMGRDOIdtLz+0G9xt3dnaZNm8YWHoh+Zs6caTZS0oPXw7kQAL1HEtLKzGLpnPCeEeEYRoHpgfoVRAqCLQhpoam4AAgM/JVRGM2IsICY4CuU196BqgWsIc8Gr6mjqSnUsBX5T1qkvBs7ig2/pY6mpmjRomxotnz5ck4FsJhQ4IShO1IUhPpY4IiyUK+A2OA2NcYrVKigPkvaQBBgFI/nQwSQVsRiKvrB7WbUdAoUKMD7eA5T9RZL0L+OJXMCiHAgcIZ3hdIDqSIiPKRegpAWmosLaNCgAQ0ePDhDwgKqTFtB1Wb9QB510rcBQVRTacJ8KvPROHUkNVhgEBcYy+NuDdIPFEbxPY6GDRvyOSg2ozbRtWtX9vs5fPgwm9EbpkppgTs38ApC3QTPi0LqyJEjOQ1DLaNFixZcZEUkZwxEZcCAAZzCIC1avHgx13MyWiw1fh1zczKkcOHCPGYc0ZkDBWJ/f39OGQUhLbK1QbdgveB7LqdOnWIh0t+ONgWiHNTRkGZVqiQWLULaZEvkIlg/iC7Dw8P5Vrg58Fn0559/soMkIiNBMIWIi8AgpUJdbN++fWbvjKF+g4Jwly5dMnR3SXj5kLRIEARNkMhFEARNEHERBEETRFwEQdAEERdBEDQhW8UFBWFBEF4OJHIRBEETRFwEQdCEl0pc4mLCKPzqBooM+ZvinkqrAEHQkmz9El1Ofgnv5onp9DjyMNnZJ/JX2BMT8pFbkdfJu+pg9QxBELKSl0JcICyx0YfIq6o/2Tkk/WX204dRFH7hCuUv3Iq8q43gMUEQsg6bT4vinobT44h95FXFnxKfxSqCcoPCL14le0cX8vQrSdH39lPCs9SNxHMCdHZDj97sah2Jhk/65uPGoMEX2lGk1eMlu3yUhNyNzYvLw9u7KG8+O7JzdKLIoHBydGlJifHeFHXnFrkW9iIdRStRTdq9al8ULEhL/IOMz8OiHTNmDPdKyQ7Q0xieSGhWZSkZ8VFC7160ZRAhejmxeXHJ5+ChPkJkEEvxcXcpMSFWSY+SxvLksaOEuIdJOzkM7E7gOlClShV1RFv69OnDfVngiGAp2eWjJOR+bF5c8jq4KZHKM0VAYsmzTClFYE6Ts0c0uZfwpYchNxTFKUBuReupZ6cE5Shzvj9nz57lsfR8itIirfPwCY9PehzTRzWwHMFzo3cKvIrQ0Ald/Qw9i/SkNR9zoHewfn7oLYzudeiEh/f7zz//8Hha4Bpcq58jDOYM54im3TiO9wc/JLg46qMzU3PU/6zRZhRzQE/j999/P/k6OBzo3zfmp28Dip+VsQeUYB3YtLg8jjhD1w+MoIK+xZRIxVGJUvJRkQp+VNBHSYtu3aCIoFAq5NtRPTs15nx/0EV/0qRJ3CLz0qVL3N/EnE+RMWg7acl5WKhLliyhY8eO8QKENQhSp8DAQF5MWNjo9WtqPobNxs0B/yUsTCxw+CCl19bTECx09EnWzxH2LLA/wfuD0RqOw8nR3BzRYvObb75hkYAAQZhOnz7Nz4/+MWg1ivakeN+InPB6+nqRoQcU2oMK1oHNisuTyPN0Ze8gKupfgQoU96G7FwMp5NgZunnoKN08cpwe3Y6lomX7UWG/TuoVqTHn+4OFBG+hxo0bc1tI+DBhkeAXPStp3bo1L3Q0CUezc0QBMC/DayJ9wsJDATgz84HDASIECAL66eL94XksBZEXrsMc4dCo93gyxtwccQwtM+E2iUbi6F+sFwr8/OG+gCbquA5d8GA9i+I3MPSAwnHBOrBJcYmJukRX9w6gokqU4u5dmu5eCKTYKGeq8OoaKlVjNhX3H08Vmq+jwmVNCwsw5/uDwuaqVavYFQAhPhY9/KaNbTuyEnMLJzPzScuvSQvMzRHHYIMCgzhjMDekaRAVXAe3R6STeuHEv4cpZwMh57C5f5GYqKssLIXK+5B7Kd+kschI8iz1Jtk7FyYXT38q4NWAx9PDnO8PCpvorI9PVVh4YIMxOxZMTpCZ+WBhQrgsTaFeFHNzRNSDGg6ExBjMDc6Xek8n/QYnB8F6sSlxefrohiIs/cmjTAkqWMqPnj2Noavb/1ZEJR/dDvyPepbl4BfYlO8PPkURyh88eJA/+WGuD5dEw/6z5nrRGmLpeeawZD6mQMqBmgiKsPCNRgqIXrpZAZ4LGzA3R6R4586d4/oMjkFI9OkV0iP4JKGGA/GBuC9btoxCQ0P5uGCd2JS4hAZ+Q/lLeJBH6bJKGhTB323BXSIn15bKUTtKiM+YDxDuTJjy/UF4jsLiggULqHz58hzV4Hx8AqfnU6TH0vMswdx8LAGRAdINeE+3atWK602Z9SRCkRXe2q+//jqLhrk5oo4EO9spU6bwPDZu3Jg8d7g6Ynzr1q18Jwle3RhD3UWwXmzm6/+J8U/oyoEPqZi/L90PvkJRwTfJ3sWJ8jnak7tXF2X8I/XM7AW3lxH9GFt24C7RjBkzWGC0BNEI7i4ZgztUiFasCUQl+roSfm5wIxg3bhwLkZD7sKm/LYoI2kz3g34kBxdv8n5lLD2+d4JunvyS4mMiqGanI+pZgjWCFCkgIIAtf318fPi28pYtW/hWtbFDpJA7eCn+cDH20Q1ydEsq7grWCX4N9+zZwwVz1Lpgr4vvxCCtEnInL4W4CIKQ/ciXAwRB0AQRF0EQNEHERRAETRBxEQRBA4j+HzmyQ2g19/vjAAAAAElFTkSuQmCC;" vertex="1" parent="1">
          <mxGeometry x="20" y="510" width="249.11" height="150" as="geometry" />
        </mxCell>
        <mxCell id="GTp7Qgm1005vjMaOhcDN-15" value="" style="shape=image;verticalLabelPosition=bottom;labelBackgroundColor=default;verticalAlign=top;aspect=fixed;imageAspect=0;image=data:image/png,iVBORw0KGgoAAAANSUhEUgAAAREAAAB5CAYAAAAeRBUNAAAAAXNSR0IArs4c6QAAAARnQU1BAACxjwv8YQUAAAAJcEhZcwAADsMAAA7DAcdvqGQAACB5SURBVHhe7Z0HeBTl1sdPekggEEIPSegdKaGDFMFyBeGiIgp8eFGKNEHkojRRERHkiqj0joiA9G6h9x6khE5ICJAEEgIJ6dlv/iczsNnsbjbsEsPm/HzmkXln3pl5N/v+55wzs+c46BRIEAThCXFU/y8IgvBE2NwSmXY0jhdL8XJzpMGBHvR+3YJqiyAIzxI2F5G3196lvrWcqGEpJ7UlgyXnUihNOVOvmi5qSwYPknU0bE8KLe/so7YIgvAskWvuTJqiVelG5KqQq4P6r5yTkJBAH330ER0+fFhtsV8wRowVYxaEvMRTEZHkdAdKSFMmud6SorSlpmduw5KoLIIgPLtkEpGYmBh6+PChuvYYeDy3bt2i9HRFBSxg6vFEenPDw0zLmksptPZySpb2/n+Zv7Pi3Hv27KFXX32VKlasSD169KCrV6/S5cuX6eWXX6YNGzZQt27daPLkybz/mTNneB/siz7Hjh3jdoBtb7/9NlWtWpWGDBlCH374If3222+8LS0tjdauXUstWrSgGjVq0DfffGP0s9AnMTGRZs2aRfXr1+dl4cKFlJqaStOnT6dFixapexGdOHGCz4fjGeuDc2tW1c8//8zXr13j3bt3eWwYI8aKMWPs9+7do/Hjx/O16h9HEHIdxESAIiC6Ll266JSJxf/WUIRDt2bNGl3t2rV1f/75p9pqmq5r7ui2X4zR3b9/P9NyOSRcd/HajSztWNDHFKGhoTpl4uvOnj2rUyaJbsWKFbpBgwbp4uPjdcqk1A0dOlR36NAh3vf27du6rl276nbv3s377tq1S/fOO+/olInIY+rZs6dOmYi8LTg4WNe2bVvdypUrue/mzZt13bt31928eZOPPWrUKJ0yoXmbMfC5zJw5Uzds2DDdgwcP+Ny9e/fmc588eZKvMS4ujvdVRIWPZa6PNhZ8/lFRUbx98ODBj64PY8R27AdwTEVcdElJSXzNuHYcRxBym0eWSJEiRUj5ktLevXtp3LhxfKdTttO6deto9OjRfCfEXfpJ0Sn/OTxB+MPV1ZWvA3df3MXfeOMNmjBhArm7u6t7PKZYsWI0Z84cvk5HR0eqVasWubm5UXR0NPd3UC6gVatWvC0gIIAUYeR+ykSkHTt20Pvvv0+lS5cmDw8P6tixIx0/ftxkDCI2NpbjFOhTsGBBKlmyJL300kukTHaqXLkyOTk50fXr10kRSTp9+jQ1aNDAbB8NfM4YB7Y///zzdO3aNXVLZry8vEgRWLYQcZzZs2dTw4YN1a2CkHtkcmeaNWtGP/30E3/RISTz589nAVHu4CwwxiauMRwT7lHIzbuZlpj7CcryMEt7WESM2ss4mCDffvstX9MLL7xA7777Lk8eCIEhaAsKCqLOnTuzO9OoUSO6cuUKb4Op7+3tTS4umZ8OAbhp2K5YBdwPCyZzeHg4C4wxIGwQiNdee+1Rn08//ZQiIyPJ2dmZRQNuzI0bN/i8EC1zfUydxxRvvfUWC9DHH3/M4gE3CCIpCLlNlpkIIfnuu+940k6cODHHAgLSXTzIp0jBTIuHuwsVcHfN0u5T2FPtZZyUlBQqXLgwffXVV3TgwAG+iyNeAUvJkAsXLrAITpkyhS0PxENgFQBYJIhXGIvrQHxgOWAiQnS0RXEl2EIzBiZs0aJFadu2bZn64Nw4F0Tk1KlTtH37dv5MCxQokG0fS4EYwSp75ZVXaNWqVXyOc+fO0datW9U9BCH3yHo7V8CX/vvvvyfFd8+xgDDOrlTIwy3T4ubqTO7KYtjuoQiLOTDJYCEgmIpJaMwCefDgAf8fEwvuD64XYgEhhDUBypUrR3Fxcey2YBtcDbgZABO4efPmtGTJkkcBZLgYGzduNCo6oFChQvTcc8/RsmXLWNBgyWzevJmFDsDy0NqwH8iuT3bg+iGquCaIJSzF5ORktnwE4Z/CqIiAJk2a0MCBA3MuICbIMLWzmtt42cwceErRp08fGjx4MFWqVIlmzpzJJjwsBNzd27RpQyNGjGDrCTGOtm3bUqdOndjEhzUCVwITDfuPGjWKVqxYQdWrV6dJkyaxhaOBGAiefHTp0oW3wyrBUw9jogVgueC64G7BzcK54b7gaQnAtaE9MDCQ4ywguz7mwNjxGWJscOf69evHrlLdunWpZcuWvB3XLwi5jc3fWJ0flPHae1yK2pANBV2IhjYqRO/VMe/W2ALc+TGRAQKmEBWIBiwvU+DxKoKW+vj6+tKCBQt44gpCfiff/IoXrgDeq8B7InXq1KF9+/axy4bF399f3UsQhJySb0QE4GUzBGUPHjzIj3/Hjh3LAVBBEJ6cfCUigiDYHpOBVUEQBEsQEREEwSpERARBsAoREUEQrCJbEbkTY3mqQ0EQ8h9iiQiCYBUiIoIgWEW274nAnSnmnfuZ2E9E36YtYRfUtce87FeFGhbN+C2KIAj/PHnWEpkUtIe8PQtRrZJlHy3+3sWp987VJG/HCULeIc+KSFxyEr1WqRbVL+X3aGntX4l8PQuLiAhCHiLPujON185UrA9f/re7kzOdvxvJ/07XpZOHM7KTOdBHdZpTu1Lluf1pgeTVw4cPp5EjR+bZX+0imfMvv/xCvXr14pwlxkBelp07d3KSKeRcEQRbkYcDqw508U4kxSQk0KrzQTS4/vO8DAlsRX3qNKOu1evT1KB96r7mQQoAZHJv164dpyREFnhkFzOVcOhZAikNkEsFPySEgCD9In6h/Mknn/AvlDUqVKjAOVWQhV5+LiXYkjwrIsUKeNLHjdrQ920787q+W6O5NpaACQMB+f333znREBIVISsYJhMm27MOrIvixYtT48aNH1lNSHQEQUEyJg0kNELSIqSQxCIItsKmIoIvsbFaLZjIOalbA9DnemgoXbh0idc7rp6TZQm7bz7JM8A1Ic3hgAEDOMMYJhPuysgaD2FBukHNUtFqziAtZEREhHqEx0CAkOMVxwRarRikYdT+PWPGjEx1Y5BnFRnisK7VzAHog2uCoCGDGs6NVIkYNxZjtXYMwTl37dpFrVu35mRLyOKGbPeop4PzGQJhqVevHqeIFARbYTMRQc5QpOxD7EA/iTImBMpO4C6Yky8vJrtvGV+qUK4Cr3erHphl8fHIPlaDchHIQern56e2ZICMZig9gezvEJPVq1fT8uXLOVs8JhrSJ2KS5hTEJzCRUW4CY8c5kNEdiZSREhHWEEQLII9rlSpV6OjRo7wf4hoQKKQ9RBpIJHC+pIgoUjdOnTo1i0DfuXOHP2vDsZkDeVSCg4MpPj5ebREE67CZiDztujWvV6qdZXF3zFw03BiY1PqiZoh+zZmyZcty0BElHZAJzVTNF3OgjAPq1qBuDNIuIlaBSQ5LoWbNmnwtmpuBGjioLYNtSOCMvKwQPUtr7cBawrnQz1JwXRAjfVdHEKzBpu4MJo0t6tYATKLwm+F0NSTDjL+imPOGiyX4+PiYLPsA4GLBMsBk1ED2d09Pz0dZ5J8ULZ9rTrG01g6uGxYbFkuBy4MxQ1wFwRbYVEQAhMTaujUAEyPA35+qqnVjqlerlmUxlYldH8QBcDcPCwtTWzJADV4IHCYiJru+qwDrBBZDTmrB2BJLa+3guiG2WCwF7hI+N4irINgCm4sIgJBYVbdG5WJMFAVFZtSNgZlvuFgSqC1RogRXxEN2dpj/mHAIUq5fv57at2/P5j3u9rCaEIuAqODxL9oRr9AHhacQJ0G9GpwbOVsR+7A1ltTaAbBYIH45id3ATYPVJe+KCLbiqYgIsLZuzUd1W9Du65doyd9HeD1emSyGiyVgEkJEEH/o3r07vzCGpyh9+/alpk2b8j4I+iLugEzwqAVz5MgRGjNmTCYXB0BE0A+lJhCgRLwHT3psjblaO/qgZi/aDK0scyBQi7o6cNcEwRbk2TdWNWBrlF78NR19d3hGgx79t62gza/8n7qWP8F7IniMDMHJLgYDqwWxKrhH1RR3UBBswVOzRGwFQoYFXd1od9hlOh4R9mhZHnyC2/M7sPiiohS3LyhIbTEO7hVbtmzhp0DG3iERhCclz1si4Gj0LdoWmvHSmYaXIiAd/KtRxYKPS2HmV+S3M8I/yTMhIoIg5F3yvDsjCELeRkREEASrEBERBMEqREQEQbCKpy4iCMwKgmC/iCUiCIJViIgIgmAVT/09kdx+z+REdATFpiSqaxk4KP+1LumvrgmCYEvsSkTWhZ6nKaf2kpdL5h/93VdEZXid5+nf/vJ7EUGwNXYlIhOCdlMC6ahv3WZqSwZzgg5QAcUaGV23ldoiCIKtkJiIIAhWYVciEpUQT8uDj1PH1XMzLWi7ERer7vXkaBndkbXN3sEYMdYnSVYt5C/sSkSalPKnWsVKU7fq9TMtaPNyfbLkSIIgmMeuRKR4AU+qVbwMvV0jMNOCNqQOsASEiIzVfEHmdWRA27BhA2eunzx5Mu+PFInYR6usd+zYMW4H2IZsaVoNGtSDQW5XgDSM+rVukEPVsCSEIcgVO2vWLK5Tg2XhwoWUmppK06dP52JcGihehfPheMb64NyaVYUSFvp1cpBWAGPDGDFWjBljFwRT2F1MJC4+nm5HRGZa0GYppmq+lClThuvTYH3ZsmU0YsQIztmKZMpImYh9UboSSaqR/xVJlZGxHSkZUeelf//+XHtGQ6t1A1GB8CCz/Jo1a9StWYG4QShwHojc1q1bOYkzlubNm3OuV62WDOrZNGzYkEtJGOuzf/9+3g/g3MiHq9XJQfkMjA1jxFhxnXm1BrGQN5DAqgGW1nwByHGKQlWwJpBMGXlXkSEeIoL+yO+K3K7YFhAQwPlbgX6tG1TlQy5XTFhMZFMxiNjYWI5ToA+SSCNJM2rcQDAqV67MqRGvX7/OtXiRSBr1bsz10YDFgXFgO2rgPEmtHSF/Y3ciUtDTk0qVLJFpQZulWFrzBaANaQmRCBruTKNGjTiDGIDLgBovqLBniFbrBhnd0Q8LJnN4eDgLjDEgbBAIFNbS+qCyXmRkJFf4g2jAjYElhfNCtMz1MXUeQcgpdicimJyo7qa/oM1SLK35AlAYG8W64PrA8oBrAKsAwCJBvMJYWQuIDywHxCMgOtqycuVKk4W2YNUg2zzKWej3wblxLogIEjZv376dS3bAlcmujyDYArsTkXuKCW9YKQ9tloJJll3NF60yHtwduD9wdSAWsF5gTYBy5cpxjRe4LdgGVwNuBsAERhxjyZIljwqdw8VA4XFjogOQOxVJlhGrgKBBGFEAHEIHYHlobdgPZNcnO3D9EFVBMIfdiYiPcuc1rJSHNksxV/MFd/c2bdpw4BEBVMQ42rZtS506deJAJqwRuBKwfrA/6tOsWLGC67ygQDgsHA3EQPDkA4XFsR1WCZ6eGBMtAMsF1wV3C24Wzg33BU92AK4N7YGBgRxnAdn1MQfGDhHF2CROIpjDrl573377Gu28fT3PvPaOO79WCwYBU4gKRAPuhinweHX27NnqWga+vr5cwU+ekgh5EbsSkV23Q2jSqb3UoJSf2pLBrtDL9HGdFrn6Azy4AuPHj+f3ROrUqUP79u3jR6lY/P3lF8WC/WBXIgLWh16gs9ER6loGNYuWpE7+uV+wCS+bISh78OBBfvw7duxYDoAKgj1hdyIiCELuYneBVUEQchcREUEQrEJERBAEqxAREQTBKp66iEhQVRDsG7FEBEGwChERQRCsQkREEASrEBERBMEqREQEQbCKPCci6clJFLF9rbqWPTHH95AuLVVdsx+QvzUmJkZde3ogMfMPP/zwKEeKMZBjZd68eZziQBAMyXMicm3e13T+q0F0Z99WtcU0Mcd20+n/vkNnx/RSW4yDn+Qjs3q7du04RSCysiPbl6kEQLbAmho1yIiGDO3r1q1TW0xjzXnQF3lR8KNAJDBCAqLz58+zqCD5tCZiFSpU4PwoSPqczU+thHxInhMRt+K+ijmSRsFffkB3D/6ltmYl+tB2Ov1JD0pPSaYC/qbzbOBLDwFB1nIk/kHiIKQ0xITAz/PzIsiZOm7cOOrVy7w4WsvOnTupePHi1LhxY15H6QmUlICg6CeMRnIiJFBCOkgsgqCPTUUEdy5jtVMwkbU0gNmhuSZpynHOjX2PYo7u4nV9YKWcGdtLcX0yqv87upjOF4prQtrBAQMGcMYvTAjcWZHFHcKCu69mqWg1YIYNG8buBIDoYDIvXryYt+vXbsG4LK1RgzaUj5g4cSJnGcM6UhYi5wjOqX9cgD5ajRr8G8KHujDIvGbuPKauyRCIxK5du6h169aPEicNHTqUM7Ah6zvSPuoDYalXrx6nexQEfWwmIpgQ/fr1o5EjR2ZKaowvNcxyfNkt+QKyiOgUsXFQhCQpgU5/2oPunXxcJyVy5wYK/rwvpSc+vlM6GsmoroHyDbiz+/llTlSEDGMoBYFs7FoNmOXLl3P2dkwWTCbtbhwSEsJpC3H9S5cuZVFCysCc1KgBN2/e5Cxlq1at4sREM2bMIE9PTz4ncp/+8ccfmYpf6QNhgNuCPK1IcoQaNRAJw/OYuiZDcb9z5w7/nQw/F3MgJwpq6Gj1bQQB2ExE4DPjTrZ37142xfEF1QRk9OjRfKfEnTw7dKkp3E8DlkPyvbvqGpFrEZ8s2x2cTYsIAof6omaIfg2YsmXL8h0YJRaQmUzLLQrLpUOHDrytfPnynBQZx81JjRqA5M3t27fnDOwQr0GDBnEuVxynVKlSLA4oT2EMiB76Y9+WLVtyQmic0xBLrwmWFurdIDerpaA2DcRIAqyCPjZ1Z5A7FGY3gnwQkvnz57OA9OzZkwXG1OTSJ10vu7ijewGq/vkcKtGmo9qiiFW95lT7m6Xk5KZ8+aElDo7k4OScsdEIPj4+JsswALhYcCEwoTSQjR0WgrknFiAnNWoA2rVtED8cf/jw4ezOIH/q3LlzeZs1WHpNGDMLsLJYCpJQ4/OCgAqChk1FBEBIEPHHlxj+f04EBKSnZBRVcnR1p1rjF1KxFv/idX28G7amGuMXkJM68c2JCHx53JHDwsLUlgwQb4DAYTIhJqBv7sM6gfWSXW2WnNSoMQTnw76Y6HBR8BgV7qC1WHpNGDMsFn2rLjsQX4IYQZgFQcPmIgIgJEhIjABlTgQEJIReJkcXV6o9aSkVbdJWbc2KT9N2VP2zWcoInCgpKqPWizFKlCjBFeqQLR0mPCYNAo3r169n1wImOiYyrCbEEyAqePyL9ipVqqhHMU5OatQYgse4iLl4eXnxOo5hKh5iCdp5LLkmAIsFQqb/FCY74OLBYoPLJAgaT0VEQJMmTWjgwIE5EhBQ86uFVPvbX8m7QfblHWClVBvzE5XvPUptyQomEkQENXHxdARuAwKUeA+iadOmvA+CvogdIDM7arMcOXKExowZk8nFMUZOatQYAvH44IMP2PWAO4MyEYi35DRoaXgec9ekD+rvos3QQjMHArWokQNXTxA0nnqiZiHvgvdEUHoTgqM95jUFrBbEueAeVauWe6U3hLzPU7NEhLwPrMWoqCh+xGwO3Ge2bNnCJTlh6QiCPiIi+Ri4Qohb7d+/3+yTKMRXEJjt2rVrjp7mCPkDcWcEQbAKsUQEQbAKERFBEKzC4VxMquVvGwmCIBggloggCFaRrYgU11n+RqMxrO0vCELeRiwRQRCsQkREEASrsHsRSU+MoJQbqyg14k9KT45WWwVBsBXZPp1BTCPKwfLENYZY298aUs5PJHpwlFxd0pSREiWnOFN6kXbkVqm/uocgCNZityICAXFNPky+tWuQk2vGL4kT78fSrXOXKNWrLblWHsJtgiBYh126M+lJUeT44AD51qpB6alJdPNsCEUEXyEXNw8qUcmPHO4fJF1a1oTSgm25GxVB9+8Zr51z+vgRmjL6Y0rSy5ULkDntZmgIpUgKxmcG+xSRqL3k5OxETm7uFHE1kuJcXqD7D8tQ7K1w8ixWkpwc4kiXYDyXqTnwhccXHxPA3jE1yS0lLTWVfls4h3ZuWa+2WEa0IjzTvhxFoVcvqy2msfYaBdtglyLi4FqEYyDA0TGF0pIiFMsjUXFrMtqInEmXbD5/qmAdTs7O9MGIsdSp23/UFssoVrI0TZq3jCpWq6G2CHkduxQRnXNBSk1OpbTkJCpWriwVdTtDxUvGUeEy5ej+jRBKTfMip6IN1b0zgx81Hz+wlwZ17UAdAqvQqA960o2QqxR27TL1f/NV2rVtI43s24MW/TiF978cfJb3wb7ocy7oOLcDbPukdzfq1LgGTR75EU0aOZT+XL+Kt6WnpdGOzevoP6+2oteb1qYF0yZTYoJ5FyspKZF+WzSb3m7TkJf1yxbxHX/F/Bm04dfF6l5EwX+f5PPheMb64NyaVbVp5VK+fu0aY6Pv8tgwRowVY8bYH8TeozlTJvC16h/HHDiONl5cx88zvuf++JwO7TJemAzuz+cf9uFzYhk3+H3auHwJf0765zV2jeY+U5x/5YKZ3I7tC3/4lo+tuVv6f0ftbw5g7Xw26D22job/5y2T7ll+xu5EJC32DCWf+piKVyilWB5u5ODgTCWrlCfvAD+KDQ+hyJDb5Fi6s7p3ViJu3lDM8Fk07MtvacPR89T6lddo6axpVLxUGZq5aguvT5yzlP4zeDj7/HP/N4He6NmH9+01ZIQyUaZSbEw0T7rFP02hV7t0o7UHz1CX9z6gqxeC1bMQHdjxB/21cQ1NWbiclu04TA/jHtD2TaZrEEPcIBShVy7Tgk07afrKTXTqyEE6dfQg1W3UnM6dOkEJDzNSK54+dohq1m9Abu4FjPYJOnKA9wPnTh6nERO+o193HCGd8t+RvTt5bBgjxoox+5WvRFtX/0puinu4Yvdx+mn5Bjq8Z0em42THnm2beKLjOv63ZBW5FzCfelIjPPQ6OTg60tx1f9LXs5bQ7t83KW3XjF6juc/08O7tisCfoLkb/uJjOTu7UNyD+7zt9o1QmvHNOP47rj8STC93fov/5poAXTx7mho0a0njps2hgl6FuU14jF2JSPr985QcNIjK1KxCXqX9KVKZtNeO/k0hB4/RtcMnKCoskahMb3Iua1pEXNS6LaHKFz5ZuXu1e+11Gjx6PLkqE8gQ76LF6LOps6hek+acELlStZrKfm7K3SpamTBXOIEPvnzYVsbPnypXr8X9khULCZO1c4/32HzHhGqlTIZg5Utuyr+Pux9LZ5S7Ivp4eBYkn+IlqWmbF+nvY4fJv2IlcnJ0olthoRSvTIxL585QjboNzPbR+Neb71ARn2K8vX6TFsoEDVG3ZMazkBfdCg+lOxG3qKhynLHfzaSa9RqoW82D8eKO/mKnN/lcEKO6jZupW81TNqA8tXypPf9dfAPKUZmyAXQvOuv7PuY+07j79+jYvt30Ysc3+DPAsfTPDwGuUrMO1VPakCayXuPmlPjwIUXdvsnb8fcNbN6SChUuYjLxdX7Gbj6R9LhLioAMoNJVK1Bh3wCKPH9O+bK5kUu9JaSrMol0ASPJJXAZufi9rvYwDr5kH30xiSdfn04v0piBvejWjTCjXx7cIc+fPkXDer7BZnD3F5sq4pFhBiNrvFdhb3I2Up1Pl57OpvcXQ/pyPywwzSNvhSvClVEywxAIG+6cH3br9KgPTOzoqEiOP9SoF6i4MScUSyqcvIp4s2iZ64NJlxNe6tSFBeh/Y/9L3ds1YTdIUUl1q3m08VpqfTwJ5j7TxIRE3ublXVTdOzNwCTet+Jk6NqrO/bq1bUwnD+9XrMlY3g6BloxuprELEUmPu0LJJ/srbos/FfYrx23x0THkWLI9OboXI0ev6uTkk1G0OjtSU1KokGKyDhz1JS3etpfvbAumTWL3xJCQyxdpxbzp7PpsPHaBlm1XrIIKGcXFXRVXKjUt1Wj9YYiPo3LHmzBzMW06fvHRMnnBcr7bGQNf4sJFitKM37Zk6jPsy8l8LlgeF8/8rbgZ26lOo6bsymTXx1IgRrDKmr/wMk1ZtJLmrP2DXbP9f21T9zCPNt7sYj7WYO4zLVLUh9w9PEyeHyL8es/e/DfU+q0/fE75TAPVPQRzPPMikh4fogjIACpR0ZeK+FWgVMUduKz4xm4ezpR65Sd1L8sJC7nKd7Mb103XbYGvDZITE8lZMY3hwuBOCJMddz5Qxj9A2S+OTWx+90FxNS4Fn+FtmMAwpzcqdz+4B9gOFwP+vjHRAZ4FC1HlmrVp66pfWdBwZ937xxaOcQBYHrB+0FalRm1uy65PdjyMj2NRxdiWz5tBa39ZwO9vYNLlBIy3dmAjDrLeu3uHg5xBhy2Pp5hDu0ZznynEpW6jZvw5II6FMeifH59RcNBxOq3sj37ov2bJPIpX/86CeZ55EdFd+5G8y3qTd0BFSoqN5ndDUhSXIN6pNenIiXSpOavjUq5SFb4rTfpkCL3WoCqtXDCLeg4cxhYC7u4Nnm9NUz//lJ80VK5Rixq3fIGG9niduikmPgKHcCVSkhVrRtm/97CR9PvaldS5aS1aOG0yFVQLVQEEBJu98BIN7/U2b9+suAfVn6tn0ufGRMB1FS1Rgvr8+0V6s0VdfgpToWp13o5ra9SyDd89ERMA2fUxh3/5iiyiQ5Sx3boRSm++24ddpa6tAum9Dm3IT9mO67eUlq90oErVa3Lffp1fJhdXF3K3sn6N/jWGX79m9jNt3KotPdewCQ18qwN/FprYA79yFanfiM9o+fwZ1LFhNX46FFCpKseJhOx5pl9716U8pLQz/SigVgDdDb1M0ddDydWjALm6u1CSVxdyqfC+uuc/A+78mMgAAdMfx4/h4CLcDVPg0eWqRXPUtQxKlPalL36cy08g8hrPyvXCJcOiiTSsxi2rltGQz75+qrGa/MAz/9uZ9FsblGU1UQFfcqr0CaXfC6LkC5NIlxhNHu0OqXvlPjCz8V7FK693pSo1n6OTh/bTL7On8ePUUmX91b2E3AKPeM8qLku3voPYZZn5zRf8VOvNd/uyNSM8OXb7AzxdfAg5eGYEWf8p8AITgrJ/Hz3Epnzf4WMkWPcPgTgM3plZvXger7/07y4sKGKFWI/dioggCLnDMx9YFQThn0VERBAEqxAREQTBKkREBEGwiqcuIhJUFQT7xkGHN3DMcCcmjop5y5t7giAYR9wZQRCsQkREEAQrIPp/zEnU70XUJbEAAAAASUVORK5CYII=;" vertex="1" parent="1">
          <mxGeometry x="460" y="460" width="273" height="121" as="geometry" />
        </mxCell>
      </root>
    </mxGraphModel>
  </diagram>
</mxfile>
